<svg width="90" height="90" viewBox="0 0 90 90" fill="none" xmlns="http://www.w3.org/2000/svg">
<path d="M44.9998 16.875C45.8627 16.8749 46.7141 17.0734 47.4881 17.455C48.2621 17.8367 48.9379 18.3913 49.4632 19.0759C49.9885 19.7605 50.3492 20.5569 50.5175 21.4033C50.6858 22.2496 50.657 23.1234 50.4335 23.9569L56.2498 29.7732L63.8435 22.1794L48.8923 7.26191C47.836 6.20888 46.4046 5.6185 44.9131 5.62061C43.4215 5.62272 41.9919 6.21714 40.9385 7.27316L37.3498 10.8732L43.5429 17.0663C44.0079 16.9425 44.4935 16.8788 44.9998 16.875ZM42.1873 27.3713C41.1147 26.7522 40.2764 25.7964 39.8024 24.6522C39.3285 23.508 39.2454 22.2394 39.566 21.0432L33.3729 14.85L26.111 22.1344L42.1873 38.2107V27.3713ZM47.8123 38.2107L52.2729 33.75L47.8123 29.2894V38.2107ZM82.721 41.0175L67.8204 26.1507L60.221 33.75L66.0373 39.5663C66.5023 39.4388 66.9879 39.375 67.4942 39.375C68.6695 39.3752 69.8152 39.7435 70.7705 40.4282C71.7258 41.1129 72.4426 42.0797 72.8202 43.1927C73.1978 44.3057 73.2174 45.509 72.876 46.6337C72.5347 47.7583 71.8496 48.7478 70.9171 49.4632C69.9845 50.1785 68.8513 50.5838 67.6766 50.6221C66.5019 50.6603 65.3447 50.3297 64.3676 49.6765C63.3905 49.0234 62.6425 48.0806 62.2286 46.9805C61.8148 45.8804 61.756 44.6784 62.0604 43.5432L56.2442 37.7269L48.971 45L67.8542 63.8832L82.7267 48.9713C83.7797 47.915 84.3701 46.4836 84.368 44.9921C84.3659 43.5005 83.7714 42.0709 82.7154 41.0175H82.721ZM22.1398 26.1169L7.26728 41.0288C6.21425 42.0851 5.62387 43.5164 5.62598 45.008C5.62809 46.4995 6.22252 47.9292 7.27853 48.9825L22.1792 63.8494L41.0285 45L22.1398 26.1169ZM47.8123 62.6288C48.8846 63.2479 49.7227 64.2036 50.1966 65.3476C50.6705 66.4916 50.7536 67.76 50.4331 68.956C50.1126 70.1521 49.4064 71.209 48.4241 71.9628C47.4417 72.7166 46.238 73.1252 44.9998 73.1252C43.7615 73.1252 42.5579 72.7166 41.5755 71.9628C40.5931 71.209 39.8869 70.1521 39.5665 68.956C39.246 67.76 39.3291 66.4916 39.803 65.3476C40.2768 64.2036 41.1149 63.2479 42.1873 62.6288V51.7894L26.156 67.8207L41.1073 82.7382C42.1636 83.7912 43.5949 84.3816 45.0865 84.3795C46.578 84.3774 48.0077 83.7829 49.061 82.7269L63.8829 67.8657L47.8067 51.7894L47.8123 62.6288Z" fill="#1E1E1E"/>
</svg>
