<svg width="106" height="106" viewBox="0 0 106 106" fill="none" xmlns="http://www.w3.org/2000/svg">
<path d="M52.9129 1.90161C24.7202 1.90161 1.90137 24.7204 1.90137 52.9132C1.90137 81.106 24.7202 103.925 52.9129 103.925C81.1057 103.925 103.925 81.106 103.925 52.9132C103.925 24.7204 81.1057 1.90161 52.9129 1.90161ZM80.4443 31.4172C78.0467 31.4999 76.4758 30.0944 76.3932 27.9448C76.3932 27.118 76.5585 26.4566 77.1372 25.6298C77.6333 24.6377 77.7987 24.4724 77.7987 24.059C77.716 22.7362 75.7317 22.6535 75.153 22.6535C67.4641 22.9015 65.4798 33.2361 63.8263 41.6691L62.9995 46.1337C67.3814 46.7951 70.5231 45.9683 72.2593 44.8935C74.7396 43.3227 71.5979 41.6691 71.9286 39.8503C72.342 38.0314 73.9955 37.1219 75.3183 37.0392C77.2199 36.9566 78.5427 38.9408 78.4601 40.9251C78.3774 44.1494 74.0782 48.6967 65.3971 48.4486C64.3223 48.4486 63.4129 48.366 62.5034 48.2833L60.8499 57.2951C59.3617 64.0746 57.4602 73.417 50.5153 81.5194C44.5626 88.6296 38.5272 89.7044 35.7988 89.787C30.7556 89.9524 27.3658 87.224 27.2831 83.6689C27.2005 80.1965 30.2595 78.295 32.2437 78.2123C34.9721 78.1296 36.791 80.1138 36.8736 82.3461C36.9563 84.2477 35.9642 84.8264 35.3028 85.2398C34.8894 85.5705 34.228 85.9839 34.228 86.728C34.228 87.0587 34.6414 87.8028 35.7162 87.8028C37.8658 87.7201 39.2713 86.6453 40.2634 85.9839C45.224 81.8501 47.1256 74.6572 49.6059 61.6769L50.1019 58.5352C50.9287 54.3187 51.9208 49.5234 53.3263 44.8109C49.8539 42.1652 47.787 38.9408 43.0744 37.7007C39.85 36.7912 37.9484 37.5353 36.5429 39.2715C34.8894 41.3384 35.4681 43.9841 37.039 45.555L39.602 48.4486C42.8264 52.1691 44.5626 54.9801 43.9012 58.8659C42.9917 64.9013 35.6335 69.6139 26.9524 66.9682C19.5115 64.6533 18.1887 59.4447 19.0981 56.551C19.8422 53.988 21.9091 53.4919 23.8934 54.1533C26.043 54.8148 26.8698 57.3777 26.2083 59.362C26.1257 59.61 26.043 59.9407 25.795 60.3541C25.5469 60.9328 25.1335 61.3462 24.8855 62.0076C24.3895 63.5785 26.5391 64.6533 28.0272 65.1494C31.3343 66.1415 34.5587 64.4053 35.3855 61.7596C36.1296 59.2793 34.5587 57.5431 33.98 56.8817L30.8382 53.4919C29.4327 51.9211 26.2083 47.4565 27.7792 42.4132C28.3579 40.5117 29.5981 38.4448 31.417 37.1219C35.2201 34.2282 39.4366 33.8149 43.4051 34.9723C48.5311 36.4605 51.0114 39.8503 54.2358 42.4959C56.0547 37.2873 58.535 32.0786 62.2554 27.7794C65.6452 23.811 70.1097 20.9999 75.3183 20.7519C80.527 20.5866 84.4128 22.9015 84.5782 26.622C84.4955 28.2755 83.586 31.3345 80.4443 31.4172Z" fill="#1A171B"/>
</svg>
