<svg width="90" height="90" viewBox="0 0 90 90" fill="none" xmlns="http://www.w3.org/2000/svg">
<g clip-path="url(#clip0_448_10)">
<mask id="mask0_448_10" style="mask-type:alpha" maskUnits="userSpaceOnUse" x="-1" y="0" width="91" height="90">
<path fill-rule="evenodd" clip-rule="evenodd" d="M63.8203 89.3855C64.5365 89.6647 65.3025 89.7935 66.0706 89.764C66.8387 89.7344 67.5925 89.5472 68.2852 89.2139L86.8146 80.2976C87.7689 79.8383 88.574 79.1188 89.1375 78.2221C89.701 77.3254 89.9999 76.2878 89.9998 75.2288V14.772C90 13.7128 89.7012 12.6751 89.1377 11.7783C88.5742 10.8814 87.769 10.1619 86.8146 9.70246L68.2852 0.787539C67.2381 0.283754 66.0604 0.117884 64.9149 0.312886C63.7695 0.507887 62.713 1.05412 61.8916 1.87598L26.419 34.238L10.9685 22.5092C10.2714 21.9802 9.41124 21.7119 8.53707 21.7507C7.66289 21.7895 6.82984 22.1329 6.18234 22.7215L1.22672 27.2293C0.840524 27.5805 0.531898 28.0085 0.320581 28.4859C0.109265 28.9632 -9.01097e-05 29.4794 -0.000487196 30.0014C-0.000884282 30.5235 0.107685 31.0399 0.318275 31.5175C0.528866 31.9952 0.83684 32.4237 1.2225 32.7755L14.622 45L1.2232 57.2253C0.837754 57.5772 0.529963 58.0056 0.319504 58.4832C0.109044 58.9608 0.000545499 59.4771 0.000942544 59.999C0.00133959 60.5209 0.110624 61.037 0.32181 61.5143C0.532996 61.9915 0.841438 62.4195 1.22742 62.7708L6.18304 67.2786C6.83046 67.8672 7.66346 68.2108 8.53764 68.2497C9.41182 68.2887 10.2721 68.0204 10.9692 67.4916L26.4197 55.7635L61.8923 88.1248C62.4414 88.6736 63.0973 89.1029 63.8203 89.3855ZM67.5131 24.5693L40.5982 45L67.5138 65.4314L67.5131 24.5693Z" fill="white"/>
</mask>
<g mask="url(#mask0_448_10)">
<path d="M86.8151 9.71717L68.2708 0.787477C67.2235 0.283046 66.0452 0.116825 64.8991 0.311841C63.7531 0.506857 62.6961 1.05345 61.8745 1.87591L1.16811 57.2252C0.782371 57.5769 0.47432 58.0053 0.263674 58.4829C0.0530284 58.9606 -0.0555718 59.4769 -0.0551747 59.9989C-0.0547776 60.5209 0.0546082 61.0371 0.265981 61.5144C0.477353 61.9917 0.786055 62.4196 1.17233 62.7708L6.13076 67.2785C6.77837 67.8679 7.61193 68.2119 8.48674 68.2509C9.36154 68.2898 10.2224 68.0211 10.9197 67.4915L84.0244 12.0326C86.4769 10.1721 89.9995 11.9215 89.9995 14.9997V14.7846C89.9995 13.7257 89.7007 12.6884 89.1374 11.7918C88.574 10.8952 87.7691 10.1766 86.8151 9.71717Z" fill="#0065A9"/>
<g filter="url(#filter0_d_448_10)">
<path d="M86.8151 80.2835L68.2708 89.2117C67.2236 89.7163 66.0454 89.8828 64.8994 89.688C63.7533 89.4933 62.6962 88.9469 61.8745 88.1247L1.16811 32.7747C0.782371 32.423 0.47432 31.9946 0.263674 31.517C0.0530284 31.0394 -0.0555718 30.523 -0.0551747 30.001C-0.0547776 29.479 0.0546082 28.9628 0.265981 28.4855C0.477353 28.0082 0.786055 27.5803 1.17233 27.2292L6.13076 22.7214C6.77837 22.132 7.61193 21.788 8.48674 21.7491C9.36154 21.7101 10.2224 21.9788 10.9197 22.5084L84.0244 77.9667C86.4769 79.8278 89.9995 78.0785 89.9995 75.0002V75.2153C89.9995 76.2742 89.7007 77.3116 89.1374 78.2081C88.574 79.1047 87.7691 79.824 86.8151 80.2835Z" fill="#007ACC"/>
</g>
<g filter="url(#filter1_d_448_10)">
<path d="M68.2715 89.2138C67.2238 89.7173 66.0455 89.8829 64.8996 89.6878C63.7537 89.4927 62.6966 88.9465 61.8745 88.1247C63.9501 90.2003 67.4995 88.7301 67.4995 85.7945V4.2046C67.4995 1.26906 63.9501 -0.201178 61.8745 1.87515C62.6966 1.05333 63.7537 0.507128 64.8996 0.312024C66.0455 0.116919 67.2238 0.282544 68.2715 0.78601L86.8122 9.70304C87.767 10.1622 88.5727 10.8816 89.1365 11.7784C89.7004 12.6753 89.9996 13.7132 89.9995 14.7726V75.2287C89.9996 76.2881 89.7004 77.3259 89.1365 78.2228C88.5727 79.1197 87.767 79.8391 86.8122 80.2982L68.2715 89.2138Z" fill="#1F9CF0"/>
</g>
<path opacity="0.25" fill-rule="evenodd" clip-rule="evenodd" d="M63.766 89.3855C64.4821 89.6646 65.2479 89.7933 66.0159 89.7638C66.7839 89.7343 67.5376 89.5471 68.2301 89.2139L86.7596 80.2976C87.7139 79.8382 88.5192 79.1187 89.0827 78.2218C89.6461 77.325 89.945 76.2873 89.9447 75.2281V14.772C89.945 13.7128 89.6461 12.6751 89.0827 11.7783C88.5192 10.8814 87.7139 10.1619 86.7596 9.70246L68.2301 0.787539C67.1831 0.283754 66.0054 0.117884 64.8599 0.312886C63.7145 0.507887 62.658 1.05412 61.8366 1.87598L26.364 34.238L10.9135 22.5099C10.2164 21.981 9.35622 21.7126 8.48204 21.7514C7.60786 21.7902 6.77481 22.1336 6.12731 22.7222L1.17169 27.23C0.785592 27.5813 0.477053 28.0093 0.265798 28.4866C0.0545432 28.964 -0.0547776 29.4801 -0.0551747 30.0022C-0.0555718 30.5242 0.0529637 31.0405 0.263492 31.5182C0.47402 31.9958 0.781908 32.4243 1.16747 32.7762L14.5669 45L1.16817 57.2246C0.782515 57.5764 0.47454 58.0049 0.26395 58.4825C0.0533597 58.9602 -0.0552095 59.4766 -0.0548125 59.9986C-0.0544154 60.5207 0.0549393 61.0369 0.266256 61.5142C0.477573 61.9916 0.786199 62.4196 1.17239 62.7708L6.12802 67.2786C6.77543 67.8672 7.60844 68.2108 8.48261 68.2497C9.35679 68.2887 10.217 68.0204 10.9142 67.4916L26.3654 55.7628L61.838 88.1248C62.3868 88.6735 63.0432 89.1028 63.766 89.3855ZM67.4588 24.5686L40.5432 45L67.4588 65.4307V24.5686Z" fill="url(#paint0_linear_448_10)"/>
</g>
</g>
<defs>
<filter id="filter0_d_448_10" x="-5.91502" y="15.8855" width="101.774" height="79.7417" filterUnits="userSpaceOnUse" color-interpolation-filters="sRGB">
<feFlood flood-opacity="0" result="BackgroundImageFix"/>
<feColorMatrix in="SourceAlpha" type="matrix" values="0 0 0 0 0 0 0 0 0 0 0 0 0 0 0 0 0 0 127 0" result="hardAlpha"/>
<feOffset/>
<feGaussianBlur stdDeviation="2.92992"/>
<feColorMatrix type="matrix" values="0 0 0 0 0 0 0 0 0 0 0 0 0 0 0 0 0 0 0.25 0"/>
<feBlend mode="overlay" in2="BackgroundImageFix" result="effect1_dropShadow_448_10"/>
<feBlend mode="normal" in="SourceGraphic" in2="effect1_dropShadow_448_10" result="shape"/>
</filter>
<filter id="filter1_d_448_10" x="56.0147" y="-5.62742" width="39.8447" height="101.255" filterUnits="userSpaceOnUse" color-interpolation-filters="sRGB">
<feFlood flood-opacity="0" result="BackgroundImageFix"/>
<feColorMatrix in="SourceAlpha" type="matrix" values="0 0 0 0 0 0 0 0 0 0 0 0 0 0 0 0 0 0 127 0" result="hardAlpha"/>
<feOffset/>
<feGaussianBlur stdDeviation="2.92992"/>
<feColorMatrix type="matrix" values="0 0 0 0 0 0 0 0 0 0 0 0 0 0 0 0 0 0 0.25 0"/>
<feBlend mode="overlay" in2="BackgroundImageFix" result="effect1_dropShadow_448_10"/>
<feBlend mode="normal" in="SourceGraphic" in2="effect1_dropShadow_448_10" result="shape"/>
</filter>
<linearGradient id="paint0_linear_448_10" x1="44.9447" y1="0.23207" x2="44.9447" y2="89.768" gradientUnits="userSpaceOnUse">
<stop stop-color="white"/>
<stop offset="1" stop-color="white" stop-opacity="0"/>
</linearGradient>
<clipPath id="clip0_448_10">
<rect width="90" height="90" fill="white"/>
</clipPath>
</defs>
</svg>
