<svg width="106" height="106" viewBox="0 0 106 106" fill="none" xmlns="http://www.w3.org/2000/svg">
<g clip-path="url(#clip0_448_2)">
<path d="M0 52.9132C0 68.2853 23.6902 80.748 52.9131 80.748C82.1361 80.748 105.826 68.2853 105.826 52.9132C105.826 37.5411 82.1353 25.0784 52.9131 25.0784C23.691 25.0784 0 37.5411 0 52.9132Z" fill="url(#paint0_radial_448_2)"/>
<path d="M52.9131 78.681C80.9943 78.681 103.759 67.1435 103.759 52.9131C103.759 38.6812 80.9943 27.1453 52.9131 27.1453C24.8319 27.1453 2.06689 38.6812 2.06689 52.9131C2.06689 67.1435 24.8319 78.681 52.9131 78.681Z" fill="#777BB3"/>
<path d="M28.7485 56.1077C31.0576 56.1077 32.7806 55.6819 33.8711 54.8427C34.9509 54.011 35.6958 52.5716 36.0868 50.5642C36.4506 48.6874 36.3117 47.3778 35.6735 46.6701C35.022 45.9475 33.6123 45.5812 31.4842 45.5812H27.7935L25.7489 56.1077H28.7485ZM16.6785 69.0739C16.5938 69.0737 16.5102 69.0549 16.4337 69.0186C16.3571 68.9824 16.2896 68.9297 16.2358 68.8642C16.1821 68.7988 16.1435 68.7223 16.1228 68.6402C16.1022 68.558 16.0999 68.4724 16.1163 68.3893L21.5374 40.4958C21.563 40.3654 21.633 40.2479 21.7355 40.1634C21.838 40.0788 21.9667 40.0324 22.0996 40.032H33.7851C37.4576 40.032 40.1909 41.0291 41.9098 42.9959C43.6361 44.9719 44.1702 47.7366 43.4947 51.2099C43.2194 52.6245 42.7465 53.9382 42.0892 55.1155C41.4052 56.3266 40.5321 57.4207 39.503 58.3565C38.2373 59.5404 36.8045 60.4002 35.2477 60.9054C33.7165 61.4048 31.7488 61.6578 29.4024 61.6578H24.67L23.3191 68.6092C23.2936 68.74 23.2234 68.8579 23.1205 68.9427C23.0176 69.0275 22.8885 69.0738 22.7552 69.0739H16.6785Z" fill="black"/>
<path d="M28.2672 46.1552H31.4842C34.0529 46.1552 34.945 46.719 35.2484 47.0555C35.7503 47.6128 35.8462 48.7892 35.5221 50.4552C35.1591 52.3212 34.4862 53.6449 33.5213 54.3873C32.5342 55.1479 30.9269 55.5332 28.7484 55.5332H26.445L28.2672 46.1552ZM33.7851 39.4583H22.1003C21.8339 39.4584 21.5757 39.551 21.37 39.7204C21.1643 39.8897 21.0238 40.1253 20.9726 40.3868L15.5515 68.2811C15.5195 68.4473 15.5246 68.6185 15.5664 68.7824C15.6082 68.9464 15.6857 69.0991 15.7933 69.2297C15.901 69.3602 16.0361 69.4654 16.1891 69.5377C16.3421 69.6099 16.5092 69.6475 16.6784 69.6478H22.7551C23.0216 69.6475 23.2797 69.5547 23.4852 69.3852C23.6908 69.2157 23.831 68.98 23.882 68.7185L25.1429 62.2317H29.4015C31.8091 62.2317 33.8363 61.9688 35.4262 61.4512C37.0607 60.9204 38.5646 60.0201 39.8957 58.7749C40.9677 57.7989 41.8772 56.6583 42.5901 55.396C43.2772 54.1665 43.7716 52.7941 44.0576 51.3192C44.7687 47.6624 44.1908 44.7348 42.3413 42.6183C40.5092 40.5207 37.6304 39.4575 33.7851 39.4575V39.4583ZM25.0519 56.6807H28.7484C31.1984 56.6813 33.0228 56.2197 34.2216 55.2959C35.4204 54.3732 36.2301 52.8324 36.6506 50.6735C37.0519 48.5999 36.8686 47.1371 36.1008 46.285C35.3319 45.4328 33.7931 45.0068 31.4842 45.0068H27.3206L25.0519 56.6807ZM33.7859 40.6042C37.3013 40.6042 39.8651 41.5269 41.4773 43.3723C43.0895 45.2176 43.5745 47.7933 42.9324 51.0992C42.6668 52.4618 42.2189 53.7069 41.5889 54.8346C40.9578 55.9634 40.1335 56.996 39.1161 57.9325C37.9035 59.0679 36.5553 59.8768 35.0715 60.359C33.5883 60.8419 31.6986 61.083 29.4024 61.0825H24.197L22.756 68.4986H16.6792L22.1012 40.6042H33.7859Z" fill="white"/>
<path d="M57.4265 61.6578C57.3418 61.6579 57.2581 61.6393 57.1814 61.6032C57.1047 61.5671 57.037 61.5145 56.9831 61.4491C56.9292 61.3838 56.8904 61.3073 56.8696 61.2251C56.8488 61.143 56.8464 61.0573 56.8626 60.9741L59.2603 48.6321C59.4893 47.4581 59.4331 46.6165 59.1032 46.2593C58.9006 46.0418 58.2938 45.6772 56.4989 45.6772H52.1534L49.139 61.194C49.1131 61.3247 49.0426 61.4423 48.9396 61.5268C48.8366 61.6112 48.7075 61.6572 48.5743 61.657H42.5472C42.4625 61.6571 42.3788 61.6384 42.3022 61.6024C42.2256 61.5663 42.1579 61.5138 42.1039 61.4486C42.05 61.3833 42.0111 61.307 41.9901 61.2249C41.9691 61.1429 41.9665 61.0573 41.9825 60.9741L47.4044 33.0798C47.4301 32.9491 47.5004 32.8314 47.6032 32.7468C47.7061 32.6622 47.8351 32.616 47.9683 32.616H53.9954C54.0801 32.6159 54.1637 32.6346 54.2403 32.6706C54.3169 32.7066 54.3847 32.7592 54.4386 32.8244C54.4926 32.8897 54.5314 32.966 54.5524 33.0481C54.5734 33.1301 54.576 33.2157 54.5601 33.2989L53.2521 40.0321H57.9259C61.4868 40.0321 63.9009 40.6588 65.3072 41.951C66.74 43.268 67.1881 45.3738 66.6367 48.2121L64.1142 61.194C64.0884 61.3245 64.018 61.4421 63.9152 61.5265C63.8124 61.6109 63.6834 61.6571 63.5504 61.657L57.4265 61.6578Z" fill="black"/>
<path d="M53.9961 32.0415H47.9682C47.7016 32.0416 47.4433 32.1343 47.2376 32.3038C47.0319 32.4734 46.8915 32.7091 46.8405 32.9708L41.4194 60.8643C41.3872 61.0305 41.3922 61.2018 41.4339 61.3658C41.4756 61.5299 41.5531 61.6827 41.6608 61.8134C41.7684 61.944 41.9036 62.0493 42.0567 62.1216C42.2098 62.1939 42.3769 62.2316 42.5462 62.2318H48.5742C48.8408 62.2317 49.0991 62.139 49.3048 61.9694C49.5105 61.7999 49.6509 61.5641 49.7019 61.3025L52.6262 46.2512H56.4971C58.2896 46.2512 58.6666 46.634 58.6806 46.6513C58.7897 46.7671 58.9328 47.3086 58.6963 48.5231L56.2987 60.8643C56.2665 61.0306 56.2715 61.2019 56.3133 61.366C56.3551 61.5302 56.4326 61.683 56.5404 61.8137C56.6481 61.9444 56.7834 62.0496 56.9366 62.1219C57.0898 62.1942 57.257 62.2317 57.4264 62.2318H63.5511C63.8175 62.2315 64.0756 62.1387 64.2812 61.9692C64.4867 61.7997 64.627 61.564 64.678 61.3025L67.2005 48.3222C67.7916 45.2747 67.2856 42.9896 65.6957 41.5287C64.1778 40.1347 61.6363 39.4576 57.9258 39.4576H53.949L55.1239 33.4098C55.1562 33.2435 55.1513 33.072 55.1096 32.9078C55.0679 32.7436 54.9903 32.5906 54.8826 32.4598C54.7748 32.3291 54.6394 32.2237 54.4862 32.1514C54.3329 32.0791 54.1656 32.0416 53.9961 32.0415ZM53.9961 33.1907L52.5551 40.6052H57.9258C61.3051 40.6052 63.6357 41.1949 64.9177 42.3744C66.2009 43.5529 66.5862 45.4627 66.0736 48.1039L63.5503 61.0834H57.4264L59.8249 48.7414C60.0977 47.3375 59.9971 46.3801 59.5231 45.8692C59.0491 45.3588 58.041 45.1036 56.4988 45.1036H51.6795L48.5742 61.0825H42.5454L47.9674 33.1882H53.9961V33.1907Z" fill="white"/>
<path d="M76.1749 56.1077C78.484 56.1077 80.2078 55.6819 81.2992 54.8427C82.3773 54.011 83.123 52.5716 83.5141 50.5642C83.8779 48.6874 83.7398 47.3778 83.1007 46.6701C82.4492 45.9475 81.0396 45.5812 78.9115 45.5812H75.2216L73.1754 56.1077H76.1749ZM64.1074 69.0739C64.0226 69.074 63.9388 69.0553 63.862 69.0192C63.7853 68.983 63.7175 68.9303 63.6636 68.8649C63.6097 68.7994 63.5709 68.7228 63.5502 68.6406C63.5294 68.5583 63.5271 68.4725 63.5435 68.3893L68.9646 40.4958C68.9903 40.3651 69.0606 40.2474 69.1634 40.1628C69.2663 40.0782 69.3953 40.032 69.5285 40.032H81.2132C84.8857 40.032 87.619 41.0291 89.337 42.9959C91.0641 44.9719 91.5974 47.7366 90.9219 51.2099C90.6635 52.5779 90.1893 53.8963 89.5173 55.1155C88.8332 56.3266 87.9602 57.4207 86.9311 58.3565C85.6662 59.5404 84.2317 60.4002 82.6757 60.9054C81.1446 61.4048 79.1769 61.6578 76.8297 61.6578H72.0981L70.748 68.6092C70.7224 68.7402 70.6521 68.8582 70.5491 68.943C70.446 69.0277 70.3167 69.074 70.1833 69.0739H64.1074Z" fill="black"/>
<path d="M75.6949 46.1552H78.9119C81.4807 46.1552 82.3727 46.719 82.6753 47.0555C83.1797 47.6128 83.2739 48.7892 82.9507 50.4552C82.5869 52.3212 81.9139 53.6449 80.9491 54.3873C79.9611 55.1479 78.3538 55.5332 76.1761 55.5332H73.8727L75.6949 46.1552ZM81.2128 39.4583H69.5281C69.2618 39.4586 69.0038 39.5513 68.7982 39.7206C68.5927 39.89 68.4524 40.1254 68.4012 40.3868L62.9793 68.2811C62.9472 68.4474 62.9523 68.6186 62.9942 68.7826C63.036 68.9467 63.1136 69.0994 63.2213 69.23C63.3291 69.3606 63.4643 69.4657 63.6174 69.5379C63.7705 69.6102 63.9377 69.6477 64.107 69.6478H70.1837C70.4501 69.6475 70.7082 69.5547 70.9138 69.3852C71.1193 69.2157 71.2596 68.98 71.3106 68.7185L72.5714 62.2317H76.8293C79.236 62.2317 81.264 61.9688 82.8531 61.4512C84.4884 60.9204 85.9923 60.0201 87.3243 58.7741C88.3959 57.7983 89.3052 56.6579 90.0179 55.396C90.7057 54.1665 91.1985 52.7941 91.4854 51.3192C92.1964 47.6624 91.6193 44.7348 89.769 42.6183C87.9369 40.5207 85.0589 39.4575 81.212 39.4575L81.2128 39.4583ZM72.4796 56.6807H76.1753C78.6253 56.6813 80.4502 56.2197 81.6502 55.2959C82.849 54.3732 83.6581 52.8324 84.0775 50.6735C84.4805 48.5999 84.2972 47.1371 83.5277 46.285C82.7583 45.4328 81.2197 45.0068 78.9119 45.0068H74.7491L72.4796 56.6807ZM81.2128 40.6042C84.7282 40.6042 87.292 41.5269 88.9042 43.3723C90.5164 45.2176 91.0012 47.7933 90.3585 51.0992C90.0939 52.4618 89.6464 53.7069 89.0158 54.8346C88.3853 55.9634 87.5607 56.996 86.5421 57.9325C85.3295 59.0679 83.9814 59.8768 82.4976 60.359C81.0149 60.8419 79.1255 61.083 76.8293 61.0825H71.6248L70.1821 68.4986H64.1053L69.5273 40.6042H81.2128Z" fill="white"/>
</g>
<defs>
<radialGradient id="paint0_radial_448_2" cx="0" cy="0" r="1" gradientUnits="userSpaceOnUse" gradientTransform="translate(31.7694 34.864) scale(69.4827 69.4827)">
<stop stop-color="#AEB2D5"/>
<stop offset="0.3" stop-color="#AEB2D5"/>
<stop offset="0.75" stop-color="#484C89"/>
<stop offset="1" stop-color="#484C89"/>
</radialGradient>
<clipPath id="clip0_448_2">
<rect width="105.826" height="105.826" fill="white"/>
</clipPath>
</defs>
</svg>
