<svg width="106" height="106" viewBox="0 0 106 106" fill="none" xmlns="http://www.w3.org/2000/svg">
<g clip-path="url(#clip0_448_2)">
<path d="M103.129 48.2651L57.5605 2.69859C54.938 0.0744285 50.6818 0.0744285 48.0552 2.69859L38.5936 12.1618L50.5967 24.1648C53.387 23.2231 56.5849 23.8548 58.8081 26.0779C61.0429 28.3152 61.6696 31.5404 60.7047 34.3398L72.2729 45.9088C75.0715 44.9439 78.3016 45.5673 80.5356 47.8062C83.6608 50.9289 83.6608 55.9912 80.5356 59.1156C79.7929 59.8586 78.9111 60.448 77.9406 60.8502C76.97 61.2523 75.9298 61.4593 74.8792 61.4593C73.8287 61.4593 72.7884 61.2523 71.8179 60.8502C70.8474 60.448 69.9656 59.8586 69.2229 59.1156C68.1074 57.9989 67.347 56.5773 67.0373 55.0295C66.7276 53.4818 66.8825 51.8771 67.4826 50.4172L56.6949 39.6295L56.6932 68.0215C57.476 68.4069 58.1906 68.9173 58.8089 69.5328C61.9325 72.6556 61.9325 77.7162 58.8089 80.8455C55.6846 83.9682 50.6206 83.9682 47.4996 80.8455C44.376 77.717 44.376 72.6564 47.4996 69.5328C48.2486 68.7842 49.1385 68.1913 50.118 67.7884V39.1334C49.1374 38.7322 48.2471 38.1388 47.4996 37.3881C45.1334 35.0236 44.5637 31.5511 45.7774 28.6442L33.9439 16.8107L2.69868 48.0542C1.43812 49.3152 0.72998 51.0252 0.72998 52.8082C0.72998 54.5911 1.43812 56.3011 2.69868 57.5621L48.2676 103.129C50.8918 105.753 55.1464 105.753 57.7746 103.129L103.129 57.7737C104.39 56.5124 105.098 54.8023 105.097 53.0192C105.097 51.2362 104.389 49.5262 103.129 48.2651Z" fill="#F34F29"/>
</g>
<defs>
<clipPath id="clip0_448_2">
<rect width="105.826" height="105.826" fill="white"/>
</clipPath>
</defs>
</svg>
