<svg width="90" height="90" viewBox="0 0 90 90" fill="none" xmlns="http://www.w3.org/2000/svg">
<path d="M41.9701 1.47241H47.8559C64.5397 3.19085 76.6833 11.4983 84.2869 26.3947C86.5533 31.3709 87.9092 36.5628 88.3545 41.9703V47.8562C86.6361 64.5399 78.3286 76.6836 63.4322 84.2872C58.456 86.5536 53.2639 87.9094 47.8559 88.3548H41.9708C25.2875 86.6363 13.1429 78.3289 5.53693 63.4325C3.27147 58.4562 1.91654 53.2641 1.47217 47.8562V41.971C3.19061 25.2877 11.498 13.1431 26.3944 5.53718C31.3707 3.27171 36.5626 1.91679 41.9701 1.47241Z" fill="#382A24"/>
<path d="M78.3163 44.5661C78.1298 39.9348 76.9185 35.608 74.6826 31.5857C75.129 30.2498 75.2771 28.8323 75.1164 27.433C74.7592 26.5457 74.0969 26.057 73.1252 25.9607C71.6273 25.8745 70.1266 25.8461 68.6266 25.8756C68.9369 25.735 69.2828 25.648 69.6644 25.6148C67.7027 22.648 65.2431 20.0425 62.3941 17.9134C58.7491 14.9083 54.5378 13.4085 49.7603 13.4141C45.9803 13.4905 42.4609 14.4995 39.2022 16.4411C32.3052 20.3856 26.5952 25.6337 22.0663 32.1925C20.6601 32.3542 19.2454 32.44 17.8279 32.4505C10.4704 31.2946 8.3357 34.124 11.4231 40.9323C12.6713 43.427 13.8257 45.9675 14.8839 48.5486C14.7269 50.6223 14.6116 52.6989 14.538 54.7783C12.2981 58.3924 10.1906 62.087 8.21968 65.8546C8.10437 66.0852 7.98906 66.0852 7.87374 65.8546C2.22624 55.2721 0.985697 44.1951 4.1521 32.6235C8.91226 18.4049 18.4044 8.91272 32.623 4.15257C48.0618 0.0903807 61.7931 3.26382 73.817 13.6729C84.828 24.434 89.1264 37.4434 86.7123 52.7012C84.7352 62.5745 79.9755 70.7959 72.4333 77.3655C72.0536 77.6983 71.6498 77.9291 71.2218 78.058C70.1425 74.8384 70.3429 71.6969 71.8265 68.6263C74.0183 65.0452 75.7624 61.2086 77.0198 57.2026C78.2559 53.0416 78.6869 48.8312 78.3163 44.5661Z" fill="#E1D7CB"/>
<path d="M62.3938 17.9136C65.2428 20.0427 67.7025 22.6481 69.6641 25.6149C69.3059 25.6421 68.955 25.7301 68.6263 25.8751C65.6628 26.0761 62.7458 26.7178 59.9715 27.7791C57.2607 27.9104 54.549 27.9964 51.8364 28.0372C51.1473 28.3175 50.4552 28.3468 49.76 28.1251C47.8072 28.0421 46.1912 27.263 44.912 25.7879C42.992 24.6151 40.9733 24.3842 38.856 25.0953C37.3583 26.1219 36.8099 27.5356 37.2107 29.3366C38.1294 30.9702 38.3896 32.7012 37.9911 34.5298C37.8256 34.8072 37.6804 35.0963 37.5566 35.3947C32.7448 39.7984 28.4484 44.7341 24.7499 50.1069C23.6505 52.0169 22.7795 54.0495 22.1547 56.1629C21.8087 59.1673 23.0497 61.2141 25.8763 62.3096C27.43 62.9274 29.0592 63.3348 30.7208 63.5211C29.3371 64.573 27.7768 64.9189 26.0493 64.5589C23.8649 64.1771 21.7408 63.5075 19.7324 62.5677C17.6614 66.3036 15.7272 70.1138 13.9337 73.9906C12.779 72.6895 11.6537 71.3626 10.5587 70.0109C10.5022 69.9044 10.4727 69.7856 10.4727 69.665C10.4727 69.5444 10.5022 69.4256 10.5587 69.3191C12.034 65.8507 13.6502 62.4441 15.4033 59.1076C16.3051 60.7037 17.6036 61.771 19.2986 62.3096C17.9411 61.0074 17.1041 59.4207 16.7877 57.5495C16.4709 54.5787 16.7662 51.5746 17.6554 48.7224C21.1274 37.5849 27.3866 28.381 36.4337 21.1163C40.3365 18.3291 44.6633 16.5402 49.4141 15.7494C53.9162 15.4421 58.2447 16.1614 62.3945 17.9143L62.3938 17.9136Z" fill="#FCFCFC"/>
<path d="M49.7603 28.125C47.3344 28.988 44.9641 29.9998 42.6629 31.1548C41.0829 32.3312 39.5525 33.5728 38.0757 34.8764C38.0372 34.8283 38.0097 34.7723 37.9951 34.7124C37.9805 34.6526 37.9793 34.5902 37.9914 34.5298C38.3898 32.7016 38.1296 30.9705 37.2109 29.3365C36.8101 27.5344 37.3586 26.1232 38.8562 25.0952C40.9736 24.3841 42.9922 24.615 44.9122 25.7878C46.1914 27.263 47.8075 28.042 49.7603 28.125Z" fill="#382A24"/>
<path d="M68.6262 25.875C70.1253 25.8459 71.6248 25.8745 73.1248 25.9608C74.0973 26.0571 74.7589 26.5458 75.1161 27.4331C75.2768 28.8324 75.1287 30.2499 74.6823 31.5858C73.6219 34.5459 72.004 37.1693 69.8377 39.4629C68.3218 40.4876 66.7058 40.6605 64.9897 39.9818C61.1933 38.8502 58.1647 36.686 55.9039 33.4891C55.1839 31.6737 55.6733 30.259 57.3762 29.2514C58.2411 28.7592 59.1059 28.2705 59.9715 27.7791C62.7457 26.7178 65.6627 26.076 68.6262 25.875Z" fill="#372923"/>
<path d="M59.9716 27.7791C59.1068 28.2705 58.2412 28.7592 57.3764 29.2514C55.6734 30.259 55.184 31.6737 55.904 33.4891C58.1648 36.686 61.1934 38.8502 64.9898 39.9818C66.7054 40.6605 68.3212 40.4876 69.8372 39.4629C72.0042 37.1693 73.6221 34.5466 74.6817 31.5858C76.9176 35.6076 78.1291 39.9342 78.3162 44.5655C77.479 47.2772 76.348 49.8894 74.9433 52.3554C74.2874 53.3007 73.5641 54.1974 72.779 55.0385C71.9464 55.6102 71.1382 56.2168 70.3568 56.8568L70.1831 56.5966C70.9692 53.6942 71.1747 50.6651 70.7878 47.6831C70.6383 46.8871 70.3452 46.125 69.9229 45.4338C69.6558 49.2797 68.6573 53.0392 66.9811 56.5109C64.7517 60.6949 61.3193 62.1654 56.6838 60.9223C49.7519 58.9441 43.6647 55.5117 38.4222 50.625C38.7561 52.7064 39.3378 54.7405 40.1547 56.6838C41.2235 59.9083 41.5118 63.1962 41.0196 66.5473C40.8585 67.2615 40.6267 67.958 40.3277 68.6264C37.9883 72.4365 35.962 76.4303 34.2689 80.5683C33.7043 82.093 33.242 83.6536 32.8851 85.2398C32.8422 85.3257 32.7811 85.4012 32.7061 85.4611C32.631 85.5209 32.5439 85.5637 32.4506 85.5865C25.2387 83.3224 19.0638 79.4587 13.9331 73.9898C15.7271 70.1133 17.6613 66.3031 19.7318 62.5669C21.7402 63.5067 23.8643 64.1763 26.0487 64.5581C27.7762 64.9181 29.3365 64.5722 30.7202 63.5203C29.0586 63.334 27.4294 62.9266 25.8757 62.3088C23.0491 61.2133 21.8081 59.1666 22.154 56.1621C22.7789 54.0487 23.6499 52.0161 24.7493 50.1061C28.4481 44.7337 32.7448 39.7986 37.5567 35.3953C37.6809 35.0958 37.8255 34.8075 37.9905 34.5305C37.9786 34.5908 37.9801 34.6531 37.9948 34.7129C38.0095 34.7726 38.037 34.8284 38.0756 34.8764C39.5524 33.5728 41.0828 32.3311 42.6628 31.1548C44.964 29.9998 47.3343 28.9879 49.7601 28.125C50.4548 28.3467 51.1469 28.3174 51.8365 28.0371C54.5526 27.9956 57.2632 27.9077 59.9716 27.7791Z" fill="#887363"/>
<path d="M71.7405 58.4143C70.7829 62.4638 69.4202 66.4066 67.6729 70.1832C67.3073 70.8676 66.7589 71.3293 66.0276 71.5684L65.8547 71.3068C66.6025 69.2272 66.9547 67.0261 66.8932 64.817C66.2699 67.4117 65.3104 69.9139 64.0392 72.2602C62.7098 72.8059 61.3539 72.8919 59.9716 72.5183C59.5425 71.9785 59.219 71.3625 59.0182 70.7028C58.5729 68.536 58.3129 66.3353 58.2412 64.1244C63.7284 64.4952 68.2284 62.592 71.7412 58.415L71.7405 58.4143Z" fill="#FBFBFB"/>
</svg>
