<svg width="90" height="90" viewBox="0 0 90 90" fill="none" xmlns="http://www.w3.org/2000/svg">
<g clip-path="url(#clip0_448_10)">
<path fill-rule="evenodd" clip-rule="evenodd" d="M44.6302 0.000697674C56.2211 0.000697674 67.8119 0.000465116 79.4026 0C80.8573 0 82.298 0.126279 83.6936 0.55186C86.7198 1.47419 88.322 3.6443 88.9499 6.63488C89.1993 7.82093 89.2702 9.02965 89.2726 10.2384C89.2911 18.3558 89.3047 26.474 89.3054 34.5921C89.3061 49.3772 89.3078 64.1623 89.2775 78.9471C89.2733 81.0167 89.1631 83.1091 88.1413 84.9945C87.008 87.0855 85.4563 88.7403 83.1006 89.468C82.675 89.5995 82.2306 89.7492 81.7942 89.7492C80.7889 89.7499 79.8104 89.999 78.8082 89.999C56.1104 89.9972 33.413 90.0105 10.7152 89.9745C8.86911 89.971 6.99307 89.8367 5.23946 89.0857C4.89063 88.9357 4.5383 88.8101 4.23133 88.5764C1.99877 86.8751 0.48272 84.7531 0.157604 81.8819C0.0407435 80.8465 0.00341797 79.8167 0.00341797 78.781C0.00690634 55.7745 0.00899936 32.768 0.0208598 9.76151C0.0219063 8.42686 0.035511 7.06919 0.446092 5.79174C1.5397 2.38814 3.93202 0.529884 7.4783 0.152442C8.3026 0.0645349 9.13388 0.00767442 9.96202 0.00697674C21.5173 -0.00244186 33.0742 0.000697674 44.6302 0.000697674Z" fill="#FB7A24"/>
<path fill-rule="evenodd" clip-rule="evenodd" d="M44.9251 57.2488C44.6715 58.8025 44.4932 60.2069 43.9351 61.5011C41.3223 67.5653 36.869 71.2605 30.193 71.9962C22.3019 72.8655 15.0133 67.9951 12.8219 60.4309C12.0276 57.6897 12.1072 54.8952 12.3953 52.1052C12.7026 49.124 13.581 46.297 14.9523 43.6298C15.1487 43.2486 15.1448 42.9608 14.8993 42.5913C12.7937 39.4246 11.9767 35.9261 12.2732 32.1499C12.4319 30.1316 12.922 28.2011 13.837 26.3927C16.5193 21.0956 22.408 16.6002 30.2948 17.3467C37.2297 18.0025 43.6529 23.9847 44.6554 30.7124C44.706 31.0501 44.8009 31.3815 44.9118 31.8796C45.0779 30.9775 45.1979 30.2331 45.3531 29.4956C46.6448 23.3837 52.6277 16.9881 61.108 16.9089C69.7033 16.8294 76.0686 23.5706 77.2696 29.8316C77.7772 32.4775 77.6889 35.121 77.2703 37.7634C76.8561 40.3924 76.0725 42.9496 74.9429 45.3594C74.6931 45.8927 74.7189 46.2768 75.0388 46.7722C76.8901 49.641 77.707 52.7903 77.6024 56.2103C77.3833 63.3465 72.336 69.7459 65.3924 71.4196C55.6982 73.7558 48.2669 67.9581 45.7661 60.9437C45.358 59.8019 45.1651 58.6099 44.9254 57.2488M62.5379 44.7116C62.6415 44.308 62.954 44.0662 63.1787 43.7676C65.6094 40.5374 66.8879 36.9294 66.6025 32.8665C66.3946 29.9013 63.9559 27.8125 61.0037 27.9231C58.0494 28.0337 55.8234 30.3119 55.7816 33.268C55.7784 33.5101 55.7931 33.7525 55.7781 33.9929C55.5747 37.1432 53.8365 38.8689 51.2024 39.0615C50.7213 39.0967 50.2389 39.1396 49.7572 39.141C46.3386 39.1487 42.9203 39.1473 39.5013 39.1441C38.0083 39.1427 36.5279 39.3053 35.106 39.7441C28.4687 41.7918 24.5983 46.3309 23.3167 53.0959C23.0627 54.4344 22.8343 55.8234 23.2731 57.1982C23.9027 59.1702 25.0766 60.6367 27.1543 61.1272C29.3076 61.6354 31.1833 61.0731 32.6736 59.3816C33.6367 58.288 33.9405 56.9886 34.0124 55.5625C34.1987 51.8945 36.1961 50.061 39.5275 50.0886C44.6376 50.1311 49.7484 50.0976 54.8593 50.1015C55.7662 50.1018 55.7746 50.114 55.7791 51.0112C55.7879 52.6682 55.7369 54.3276 55.8008 55.9829C55.9047 58.6853 58.2824 60.9315 61.0389 61.0106C63.8812 61.0919 66.4148 58.9895 66.6001 56.2452C66.7598 53.8696 66.7497 51.4797 66.5938 49.1024C66.4731 47.2623 65.4775 45.9506 63.7905 45.1895C63.3859 45.0074 62.9603 44.871 62.5379 44.7116ZM30.5034 39.1358C31.6026 39.1358 32.4998 39.1256 33.3963 39.1403C33.8408 39.1473 34.0054 38.9561 34.0019 38.5204C33.9873 36.7961 34.0762 35.0662 33.9663 33.3482C33.8212 31.0818 32.616 29.4433 30.5059 28.6169C28.3424 27.7696 26.3624 28.2531 24.688 29.8511C23.0062 31.4568 22.7819 33.4204 23.3704 35.5692C23.9111 37.5444 25.1879 38.6662 27.1965 39.0053C28.363 39.2017 29.5361 39.1075 30.5034 39.1358Z" fill="white"/>
</g>
<defs>
<clipPath id="clip0_448_10">
<rect width="89.31" height="90" fill="white"/>
</clipPath>
</defs>
</svg>
