<svg width="76" height="106" viewBox="0 0 76 106" fill="none" xmlns="http://www.w3.org/2000/svg">
<g clip-path="url(#clip0_448_2)">
<path d="M37.479 105.559L6.93833 97.0805L0.132324 20.7449H74.9172L68.1042 97.0688L37.479 105.559Z" fill="#264DE4"/>
<path d="M62.2715 92.2087L68.0935 26.9863H37.5249V99.0693L62.2715 92.2087Z" fill="#2965F1"/>
<path d="M15.735 55.2982L16.574 64.6605H37.525V55.2982H15.735ZM14.0488 36.3489L14.8998 45.7111H37.525V36.3489H14.0488ZM37.525 79.6131L37.4839 79.6239L27.0573 76.8085L26.3906 69.3418H16.9923L18.3039 84.0419L37.4819 89.3655L37.525 89.3538V79.6131Z" fill="#EBEBEB"/>
<path d="M17.7329 0H29.0719V4.74196H22.4749V9.48391H29.0724V14.2256H17.7329V0ZM31.3399 0H42.6792V4.12341H36.0819V4.94804H42.6792V14.4319H31.3402V10.1019H37.9375V9.27724H31.3396L31.3399 0ZM44.9473 0H56.2865V4.12341H49.6892V4.94804H56.2865V14.4319H44.9473V10.1019H51.5446V9.27724H44.9476L44.9473 0Z" fill="black"/>
<path d="M59.2554 55.2982L60.9454 36.3489H37.493V45.7111H50.6852L49.8333 55.2982H37.493V64.6605H49.0216L47.9346 76.8027L37.4927 79.621V89.3611L56.6859 84.0419L56.8266 82.4601L59.027 57.8123L59.2554 55.2982Z" fill="white"/>
</g>
<defs>
<clipPath id="clip0_448_2">
<rect width="75.05" height="105.826" fill="white"/>
</clipPath>
</defs>
</svg>
