<svg width="106" height="106" viewBox="0 0 106 106" fill="none" xmlns="http://www.w3.org/2000/svg">
<g clip-path="url(#clip0_448_2)">
<path d="M0 0H105.826V105.826H0V0Z" fill="#F7DF1E"/>
<path d="M27.8256 88.4361L35.9238 83.5351C37.4864 86.3051 38.9076 88.649 42.3168 88.649C45.5846 88.649 47.6453 87.3708 47.6453 82.3987V48.5847H57.5901V82.5392C57.5901 92.8395 51.5522 97.5281 42.743 97.5281C34.7874 97.5281 30.1695 93.4079 27.8252 88.4353M62.9918 87.3704L71.0891 82.6822C73.221 86.1634 75.9915 88.7205 80.8925 88.7205C85.0136 88.7205 87.641 86.6602 87.641 83.8186C87.641 80.409 84.9416 79.2011 80.3952 77.2128L77.9096 76.1462C70.7344 73.0926 65.9752 69.2564 65.9752 61.1582C65.9752 53.6991 71.6579 48.0159 80.5379 48.0159C86.8601 48.0159 91.4065 50.2184 94.6739 55.9723L86.9304 60.9453C85.2252 57.8908 83.379 56.6833 80.5374 56.6833C77.6247 56.6833 75.7777 58.5303 75.7777 60.9453C75.7777 63.9287 77.6247 65.137 81.8867 66.984L84.3728 68.0493C92.8265 71.6726 97.5858 75.3662 97.5858 83.6768C97.5858 92.6283 90.5533 97.5293 81.1054 97.5293C71.8708 97.5293 65.9036 93.1251 62.9914 87.3708" fill="black"/>
</g>
<defs>
<clipPath id="clip0_448_2">
<rect width="105.826" height="105.826" fill="white"/>
</clipPath>
</defs>
</svg>
