<svg width="90" height="90" viewBox="0 0 90 90" fill="none" xmlns="http://www.w3.org/2000/svg">
<g clip-path="url(#clip0_448_10)">
<path d="M89.8722 44.8886C89.8722 69.6786 69.7751 89.7761 44.9836 89.7761C20.1914 89.7761 0.0947266 69.6786 0.0947266 44.8886C0.0947266 20.0971 20.1922 0 44.9836 0C69.7755 0 89.8722 20.0971 89.8722 44.8886Z" fill="#DD4814"/>
<path d="M14.4609 38.8945C11.1496 38.8945 8.4668 41.5773 8.4668 44.8886C8.4668 48.1982 11.1496 50.8814 14.4609 50.8814C17.7709 50.8814 20.4537 48.1982 20.4537 44.8886C20.4537 41.5773 17.7709 38.8945 14.4609 38.8945ZM57.2514 66.1328C54.3851 67.7887 53.4018 71.452 55.0576 74.3169C56.7117 77.1835 60.375 78.1661 63.2416 76.5106C66.1079 74.8565 67.0909 71.1932 65.4354 68.3262C63.7813 65.4617 60.1159 64.4791 57.2514 66.1328ZM27.4789 44.8886C27.4789 38.9662 30.4208 33.7335 34.9219 30.5653L30.5404 23.2267C25.2971 26.7318 21.3955 32.0875 19.7741 38.3605C21.6662 39.9038 22.877 42.254 22.877 44.8883C22.877 47.5211 21.6662 49.8713 19.7741 51.415C21.3934 57.6894 25.295 63.0458 30.5404 66.5508L34.9219 59.2102C30.4208 56.0437 27.4789 50.8114 27.4789 44.8886ZM44.9839 27.3819C54.1291 27.3819 61.6322 34.3934 62.4197 43.3358L70.9591 43.2099C70.5394 36.6083 67.6552 30.6816 63.2241 26.3237C60.9452 27.1846 58.3127 27.0528 56.0381 25.7415C53.7589 24.4263 52.3298 22.2076 51.9393 19.7994C49.6738 19.1726 47.3341 18.8545 44.9836 18.8537C40.9813 18.8497 37.0324 19.7718 33.4457 21.5477L37.6099 29.0103C39.9195 27.9354 42.4365 27.3795 44.9839 27.3819ZM44.9839 62.394C42.4366 62.3963 39.9197 61.8404 37.6103 60.7655L33.446 68.2275C37.0322 70.0056 40.9815 70.9287 44.9843 70.9243C47.3349 70.9239 49.6747 70.6049 51.9396 69.9761C52.3302 67.5679 53.7596 65.3513 56.0381 64.034C58.3148 62.7202 60.9456 62.5908 63.2241 63.4518C67.6555 59.0939 70.5394 53.1672 70.9598 46.5656L62.4179 46.4397C61.6322 55.3845 54.1295 62.394 44.9839 62.394ZM57.2493 23.6405C60.1159 25.2957 63.7795 24.3155 65.4333 21.4489C67.0891 18.5823 66.1083 14.9186 63.2416 13.2628C60.375 11.609 56.7117 12.5913 55.0555 15.4579C53.4021 18.3232 54.3847 21.9864 57.2493 23.6405Z" fill="white"/>
</g>
<defs>
<clipPath id="clip0_448_10">
<rect width="90" height="90" fill="white"/>
</clipPath>
</defs>
</svg>
