<svg width="76" height="106" viewBox="0 0 76 106" fill="none" xmlns="http://www.w3.org/2000/svg">
<g clip-path="url(#clip0_448_2)">
<path d="M74.9172 20.7449L68.1042 97.0688L37.479 105.559L6.93833 97.0805L0.132324 20.7449H74.9172Z" fill="#E44D26"/>
<path d="M37.5249 99.0693L62.2715 92.2087L68.0935 26.9863H37.5249V99.0693Z" fill="#F16529"/>
<path d="M24.2806 45.7111H37.525V36.3489H14.0488L14.2728 38.8606L16.574 64.6605H37.525V55.2982H25.1363L24.2806 45.7111ZM26.3906 69.3418H16.9923L18.3039 84.0419L37.4819 89.3655L37.525 89.3538V79.6131L37.4839 79.6239L27.0573 76.8085L26.3906 69.3418Z" fill="#EBEBEB"/>
<path d="M7.09033 0H11.8481V4.70062H16.2005V0H20.9586V14.2347H16.2008V9.46808H11.8484V14.2347H7.09063L7.09033 0ZM27.2149 4.72056H23.027V0H36.1641V4.72056H31.9736V14.2347H27.2158V4.72056H27.2149ZM38.249 0H43.2099L46.2616 5.00168L49.3103 0H54.2733V14.2347H49.5349V7.17918L46.2616 12.2404H46.1795L42.9042 7.17918V14.2347H38.249V0ZM56.6411 0H61.4003V9.52964H68.0911V14.2347H56.6408L56.6411 0Z" fill="black"/>
<path d="M37.493 64.6605H49.0216L47.9346 76.8027L37.4927 79.621V89.3611L56.6859 84.0419L56.8266 82.4601L59.027 57.8123L59.2554 55.2982H37.493V64.6605ZM37.493 45.6883V45.7111H60.1073L60.2949 43.6069L60.7217 38.8606L60.9454 36.3489H37.493V45.6883Z" fill="white"/>
</g>
<defs>
<clipPath id="clip0_448_2">
<rect width="75.05" height="105.826" fill="white"/>
</clipPath>
</defs>
</svg>
