<svg width="156" height="106" viewBox="0 0 156 106" fill="none" xmlns="http://www.w3.org/2000/svg">
<g clip-path="url(#clip0_448_2)">
<path d="M46.1884 69.8323L50.9067 85.1413C51.9667 88.6172 52.4088 91.0436 52.2318 92.4267C54.8122 85.5155 56.6153 77.984 57.641 69.8323H63.3144C60.8746 83.1035 57.6577 92.7472 53.6636 98.7632C50.5519 103.399 47.143 105.717 43.4309 105.717C42.4412 105.717 41.221 105.418 39.7731 104.824V101.625C40.4805 101.729 41.3104 101.785 42.265 101.785C43.9964 101.784 45.3929 101.305 46.4544 100.347C47.7258 99.1795 48.3623 97.8678 48.3623 96.4138C48.3623 95.421 47.8659 93.3836 46.8777 90.3016L40.3037 69.8323H46.1884ZM10.078 60.4229L18.72 86.7903H18.7734L27.4684 60.4229H34.5724C36.128 73.4992 37.0467 85.4637 37.3287 96.3086H31.3394C31.1284 86.1711 30.5454 76.6376 29.5904 67.7082H29.5382L20.4178 96.3086H15.8566L6.79134 67.7082H6.73798C6.06582 76.2839 5.64171 85.8173 5.46563 96.3086H0.00390625C0.356863 83.5488 1.24016 71.588 2.65381 60.4229H10.078Z" fill="#00758F"/>
<path d="M106.891 59.8904C116.187 59.8904 120.835 65.8294 120.835 77.7017C120.835 84.1532 119.437 89.0263 116.644 92.3185C116.141 92.9201 115.584 93.4398 114.999 93.9213L121.577 97.174L121.571 97.1737L119.235 101.207L110.668 96.2086C109.248 96.629 107.686 96.8393 105.983 96.8393C101.418 96.8393 98.0088 95.509 95.7546 92.8518C93.2802 89.9124 92.0437 85.2848 92.0437 78.9771C92.0437 72.562 93.4391 67.7073 96.2331 64.4109C98.7778 61.3957 102.331 59.8904 106.891 59.8904ZM78.4239 59.9423C81.7464 59.9423 84.7674 60.8314 87.4886 62.6031L86.1065 65.683C83.778 64.6933 81.4823 64.1963 79.2184 64.1963C77.3814 64.1963 75.966 64.6384 74.9793 65.528C73.9871 66.4098 73.3734 67.5445 73.3734 68.9278C73.3734 71.0534 74.8877 72.8968 77.6838 74.4541C78.5998 74.9548 79.5126 75.4613 80.4222 75.9736L80.6308 76.091L80.7354 76.1498L80.9443 76.2671L81.0487 76.326L81.2573 76.4436C83.3738 77.6368 85.3654 78.7757 85.3654 78.7757C88.1612 80.7603 89.5548 82.8763 89.5548 86.3613C89.5548 89.4048 88.4395 91.903 86.2163 93.8579C83.9915 95.8041 81.0026 96.7798 77.2595 96.7798C73.7588 96.7798 70.366 95.6567 67.0796 93.4292L68.617 90.3466C71.4452 91.7642 74.0044 92.4722 76.3025 92.4722C78.4579 92.4722 80.145 91.991 81.3655 91.0407C82.5836 90.0834 83.3135 88.7483 83.3135 87.0554C83.3135 84.9246 81.8313 83.1031 79.1123 81.5751C78.2612 81.1049 77.4126 80.6302 76.5667 80.1509L76.3583 80.0329C75.9757 79.8167 75.5903 79.5978 75.2128 79.3834L75.0081 79.267C73.172 78.2226 71.5846 77.3102 71.5846 77.3102C68.8665 75.322 67.5035 73.1888 67.5035 69.6738C67.5035 66.7667 68.5199 64.417 70.5497 62.6295C72.5846 60.838 75.2093 59.9423 78.4239 59.9423ZM131.76 60.4226V91.8939H143.052V96.3083H126.033V60.4229L131.76 60.4226ZM149.326 91.9076V92.6535H148.085V96.3044H147.136V92.6535H145.846V91.9076H149.326ZM151.618 91.9076L152.81 94.9047L153.905 91.9076H155.251V96.3044H154.356V92.9583L153.11 96.3044H152.465L151.217 92.9583H151.169V96.3044H150.322V91.9076H151.618ZM106.306 64.3036C100.828 64.3036 98.0876 68.8247 98.0876 77.8609C98.0876 83.037 98.8138 86.7903 100.264 89.1297C101.606 91.2948 103.709 92.3752 106.573 92.3752C112.051 92.3752 114.791 87.8189 114.791 78.7105C114.791 73.6069 114.065 69.8857 112.617 67.5451C111.273 65.3849 109.171 64.3036 106.307 64.3036" fill="#F29111"/>
<path d="M91.9478 2.22359C93.765 -2.24174 100.119 1.13985 102.585 2.69965C103.189 3.08991 103.882 3.91438 104.575 4.21912C105.656 4.26158 106.736 4.34618 107.819 4.39136C109.85 4.86864 111.753 5.25859 113.353 6.17009C120.791 10.5502 125.632 15.0137 130.088 22.3864C131.04 23.948 131.516 25.6379 132.294 27.3278C133.373 29.8467 134.586 32.4908 135.839 34.8727C136.4 36.0019 136.834 37.2575 137.613 38.2112C137.917 38.6472 138.781 38.7758 139.298 39.0363C140.725 39.7752 142.455 40.3362 143.797 41.2034C146.305 42.7669 148.729 44.6299 150.933 46.5372C151.754 47.2734 152.314 48.3156 153.097 49.0943V49.4873C152.402 49.7005 151.71 49.9188 151.017 50.0938C149.504 50.4825 148.163 50.3946 146.695 50.7836C145.788 51.0468 144.661 51.394 143.71 51.4822L143.797 51.5708C144.357 53.1703 147.386 54.4711 148.771 55.4278C150.453 56.642 152.012 58.1144 153.267 59.8055C153.7 60.237 154.134 60.6297 154.565 61.06C154.866 61.496 154.951 62.06 155.256 62.4488V62.5804C154.918 62.4612 154.675 62.2338 154.445 61.996L154.308 61.8526C154.171 61.7101 154.032 61.57 153.874 61.4545C152.919 60.8025 151.972 60.0226 151.017 59.4165C149.376 58.3752 147.473 57.7709 145.788 56.7256C144.835 56.1189 143.927 55.4278 143.018 54.7334C142.195 54.1249 141.289 52.9562 140.771 52.089C140.467 51.6099 140.425 51.0468 140.077 50.7002C140.139 50.1214 140.669 49.9494 141.204 49.8081L141.327 49.7757C141.512 49.7278 141.693 49.6799 141.85 49.6165C144.099 48.6619 146.779 48.3156 150.24 48.4024C150.109 47.5333 147.947 46.4505 147.256 45.9301C145.871 44.9313 144.403 43.8891 142.933 42.9801C142.154 42.504 140.812 42.1565 139.949 41.7674C138.781 41.2902 136.186 40.8132 135.539 39.9041C134.44 38.4711 133.65 36.7618 132.883 35.0352L132.675 34.564L132.466 34.0931C131.56 32.0138 130.434 29.8461 129.526 27.7171C129.051 26.6786 128.833 25.7671 128.313 24.771C125.157 18.6585 120.487 13.5409 114.824 9.94193C112.963 8.77087 110.888 7.68713 108.597 6.95059C107.299 6.55852 105.741 6.77533 104.358 6.47453H103.448C102.671 6.2556 102.022 5.43203 101.416 4.99781C100.078 4.08874 98.7367 3.47834 97.1357 2.82974C96.5747 2.56957 94.9728 1.96372 94.4136 2.4407C94.0673 2.52772 93.8917 2.65841 93.8065 3.00591C93.4621 3.52443 93.765 4.30554 93.9794 4.78373C94.6289 6.16948 95.5362 6.99305 96.3597 8.16411C97.0923 9.20266 98.0023 10.3737 98.5217 11.5029C99.6425 13.9303 100.164 16.6196 101.203 19.0466C101.588 19.9593 102.197 20.9979 102.758 21.8212C103.233 22.4746 104.097 22.947 104.358 23.7742C104.879 24.6415 103.578 27.503 103.277 28.4118C102.151 31.9677 102.369 36.9107 103.666 39.993L103.735 40.1555L103.805 40.3201C104.278 41.4491 104.785 42.6647 106.044 42.9804C106.131 42.8942 106.044 42.9394 106.216 42.8942C106.521 40.5084 106.607 38.2109 107.429 36.3442C107.904 35.1771 108.853 34.352 109.504 33.3993C109.937 33.6588 109.937 34.4415 110.196 34.9594C110.758 36.3027 111.363 37.7755 112.057 39.1227C113.481 41.8972 115.083 44.5872 116.898 47.0142C117.506 47.8811 118.369 48.8354 119.147 49.6162C119.494 49.9185 119.882 50.0932 120.142 50.4822H120.227V50.6132C118.93 50.135 118.107 48.7929 117.073 48.0094C115.125 46.5366 112.792 44.3249 111.45 42.2026C110.888 40.9842 110.281 39.8165 109.676 38.6042V38.5165C109.417 38.8628 109.504 39.2067 109.374 39.7307C108.813 41.8972 109.245 44.3688 107.299 45.1481C105.094 46.0608 103.448 43.6754 102.758 42.5913C100.552 38.9932 99.9472 32.9232 101.503 28.0234C101.849 26.9387 101.896 25.6379 102.499 24.7719C102.369 23.9889 101.765 23.7749 101.416 23.2951C100.811 22.4752 100.293 21.5201 99.8189 20.6095C98.9086 18.8307 98.261 16.7054 97.5699 14.7978C97.2661 14.0188 97.179 13.2368 96.8761 12.4993C96.3594 11.3738 95.407 10.2446 94.6723 9.24875C93.6774 7.81752 90.7797 5.0436 91.9478 2.22359ZM106.13 10.7185C106.246 10.8343 106.385 10.9356 106.53 11.0354L106.704 11.1548C106.936 11.3155 107.16 11.4847 107.298 11.7152C107.516 12.0202 107.557 12.3214 107.818 12.627C107.818 13.6692 107.516 14.3621 106.907 14.7939C106.907 14.7939 106.865 14.8394 106.822 14.8818C106.477 14.1871 106.174 13.4961 105.826 12.802C105.397 12.1961 104.791 11.7155 104.441 11.0232H104.357V10.9362C104.879 10.8073 105.397 10.7185 106.13 10.7185Z" fill="#00758F"/>
</g>
<defs>
<clipPath id="clip0_448_2">
<rect width="155.26" height="105.826" fill="white"/>
</clipPath>
</defs>
</svg>
