<svg width="106" height="106" viewBox="0 0 106 106" fill="none" xmlns="http://www.w3.org/2000/svg">
<path d="M20.5874 100.653C20.3228 100.181 19.9588 96.0649 20.2 96.2363C20.272 96.2892 20.562 96.8014 20.8435 97.3729C21.125 97.9443 21.4403 98.4036 21.5462 98.393C21.8065 98.3697 21.7049 95.8617 21.3345 93.1991C20.6339 88.1258 18.8455 83.8144 16.3437 81.156C15.9204 80.7073 15.6157 80.3094 15.6686 80.2713C15.8654 80.1295 18.4772 82.0534 19.5672 83.1456C20.1874 83.7657 21.1229 84.8917 21.6435 85.6473C22.3377 86.6505 22.6277 86.9553 22.7229 86.7754C22.888 86.4643 22.2785 65.8155 21.9271 59.8955C21.7705 57.2372 22.0605 57.7303 23.2182 62.084C25.4702 70.5649 27.1507 78.8511 28.1751 86.5299C28.3571 87.8781 28.5413 89.0126 28.5878 89.0486C28.6344 89.0845 28.7826 89.0528 28.9201 88.9787C30.7996 87.9543 32.1457 87.567 34.3173 87.421C35.856 87.3172 36.3174 87.5522 35.0581 87.7956C32.6241 88.2676 30.8462 89.9396 30.0969 92.4541C29.4302 94.6997 29.4048 98.1835 30.0461 99.7243C30.3678 100.497 30.1244 100.624 27.7878 100.91C26.2724 101.096 25.7199 101.111 25.2437 100.988C24.4902 100.791 22.8775 100.78 22.7145 100.969C22.6489 101.047 22.2002 101.109 21.7197 101.109C20.9154 101.109 20.8223 101.073 20.5874 100.653ZM24.7654 93.8129C25.0871 93.379 24.9178 92.9409 24.3336 92.708C23.8574 92.5154 23.777 92.5197 23.4087 92.7588C22.9642 93.0488 22.8753 93.6689 23.2394 93.9314C23.6204 94.2065 24.5241 94.1346 24.7633 93.8129H24.7654ZM27.4068 93.9928C27.5829 93.8795 27.7365 93.7345 27.8598 93.5652C28.3698 92.8668 27.1147 92.2487 26.2829 92.7906C25.4236 93.3493 26.4523 94.4521 27.4068 93.9928ZM32.2494 100.541C32.1796 100.461 32.4971 99.7222 32.9564 98.9031C33.4135 98.0819 33.8262 97.4935 33.8728 97.593C34.021 97.9168 33.4474 100.302 33.1744 100.499C32.8569 100.725 32.4251 100.744 32.2494 100.541ZM17.3576 99.6735C16.7438 98.9454 16.8898 98.755 17.6539 99.2862C18.0264 99.5486 18.3333 99.845 18.3333 99.9444C18.3333 100.292 17.7428 100.126 17.3597 99.6714L17.3576 99.6735ZM35.6634 99.3645C35.6634 99.2523 35.8793 98.9835 36.1438 98.7677C36.673 98.3359 36.8042 98.5285 36.4465 99.2079C36.2454 99.5889 35.6634 99.7053 35.6634 99.3645ZM52.7332 97.6141C52.2189 97.5612 51.7172 97.4279 51.6178 97.3178C51.3849 97.0533 51.3765 90.8751 51.6093 90.8751C51.7045 90.8751 51.8887 91.1926 52.0178 91.5757C52.2845 92.38 52.5032 92.4675 52.6739 91.8381C52.8729 91.1249 52.8115 84.4917 52.5914 82.7456C51.641 75.2319 48.644 69.784 43.4014 66.0462C41.1029 64.408 37.7863 63.0047 34.8358 62.4227C33.2188 62.1052 33.731 61.9486 36.1015 62.0375C41.105 62.228 44.9211 63.5339 48.4768 66.2748C50.3789 67.7731 52.0356 69.5591 53.3872 71.5682C54.346 73.0117 54.7417 73.3757 54.7417 72.8042C54.7417 72.6561 54.8751 70.9375 55.0359 68.9839C56.4731 51.5014 60.1071 37.0244 65.5847 26.9497C69.5214 19.707 76.3959 12.5213 82.2735 9.50107C85.2303 7.98352 87.6474 7.40994 90.7819 7.48614C92.7567 7.53482 92.9196 7.56233 94.5282 8.13803C95.5389 8.49547 96.5065 8.96472 97.413 9.53705C98.7083 10.3985 100.184 11.662 100.025 11.7763C99.9719 11.8144 99.301 11.4271 98.5348 10.9149C92.9112 7.16654 87.8209 7.69779 83.4651 12.4854C81.12 15.0675 77.8521 19.9567 75.7737 24.0056C69.7881 35.6529 66.1625 48.2695 64.5751 62.9772C64.2301 66.171 63.9783 70.9353 64.1624 70.8147C64.2301 70.7681 64.7254 69.7141 65.2588 68.4696C68.6389 60.5898 72.8317 54.8646 77.5135 51.7321C78.9358 50.7797 80.9253 49.8188 81.1412 49.9754C81.1899 50.0093 80.7814 50.441 80.2311 50.9342C76.0869 54.6487 73.3524 58.8923 71.2718 64.8461C69.2865 70.5184 68.3806 76.6732 68.3743 84.5277C68.3743 88.2147 68.7743 93.8086 69.1511 95.3262C69.4156 96.395 69.3204 96.4818 67.9129 96.4818C66.7488 96.4818 63.0322 96.7739 60.6807 97.0533C59.8066 97.1591 58.9536 97.1379 57.2773 96.9771C56.0498 96.8585 54.8857 96.7252 54.6973 96.6808C54.3502 96.6024 54.3163 96.6511 54.2782 97.3199C54.2528 97.7136 54.0666 97.7496 52.7332 97.6141ZM58.0393 83.3805C58.6616 83.1477 58.833 82.9149 58.833 82.2863C58.833 80.9528 56.0625 80.792 55.6074 82.1C55.4508 82.5487 55.8826 83.1794 56.4964 83.4038C57.125 83.6345 57.3684 83.6303 58.0393 83.3805ZM63.0533 83.2704C63.6396 82.8006 63.7264 82.5 63.4216 81.9772C62.575 80.5168 59.7071 81.3275 60.3992 82.8344C60.6553 83.3953 61.0321 83.5752 61.9612 83.5816C62.4417 83.5837 62.7803 83.4884 63.0533 83.2704ZM69.4262 97.411C69.3691 97.3051 69.6125 96.8458 69.968 96.3887C71.8285 93.9864 72.5502 93.1186 72.6878 93.1186C72.7703 93.1186 72.8042 93.197 72.7618 93.2943L71.8666 95.3325C71.4157 96.3569 70.9247 97.2903 70.7681 97.4004C70.4104 97.6586 69.5617 97.6649 69.4262 97.411ZM74.6032 96.1495C74.6032 95.8955 76.4086 94.7039 76.4996 94.9008C76.5377 94.9854 76.3811 95.3452 76.1483 95.6987C75.7927 96.2448 75.6446 96.3421 75.1662 96.3421C74.8191 96.3421 74.6032 96.2659 74.6032 96.1495ZM47.0037 95.8871C46.6312 95.5505 45.9603 94.4986 46.028 94.3526C46.0661 94.2721 46.5529 94.5642 47.1117 95.0066C47.6704 95.4489 48.0768 95.8638 48.0175 95.9336C47.8567 96.1199 47.2302 96.0902 47.0037 95.8871Z" fill="#8BC34A"/>
</svg>
