<svg width="90" height="90" viewBox="0 0 90 90" fill="none" xmlns="http://www.w3.org/2000/svg">
<g clip-path="url(#clip0_448_10)">
<path d="M68.9062 0H21.0938C9.44399 0 0 9.44399 0 21.0938V68.9062C0 80.556 9.44399 90 21.0938 90H68.9062C80.556 90 90 80.556 90 68.9062V21.0938C90 9.44399 80.556 0 68.9062 0Z" fill="#2396ED"/>
<path d="M49.6361 42.9339H56.9194V36.3442H49.6361V42.9339ZM40.9658 42.9339H48.2488V36.3442H40.9658V42.9339ZM32.4686 42.9339H39.7519V36.3442H32.4686V42.9339ZM23.9713 42.9339H31.0816V36.3442H23.9716L23.9713 42.9339ZM15.3011 42.9339H22.5844V36.3442H15.3011V42.9339ZM23.9716 34.9569H31.0813V28.3676H23.9716V34.9569ZM32.4689 34.9569H39.7519V28.3676H32.4686L32.4689 34.9569ZM40.9658 34.9569H48.2488V28.3676H40.9658V34.9569ZM40.9658 26.98H48.2488V20.3906H40.9658V26.98ZM80.1562 39.9864C80.1562 39.9864 77.0347 37.0382 70.6187 38.0788C69.9251 33.0497 64.5493 30.1018 64.5493 30.1018C64.5493 30.1018 59.5206 36.1712 63.1621 42.9342C62.1218 43.4545 60.3875 44.1482 57.7863 44.1482H10.099C9.23168 47.443 9.23168 69.2923 33.1622 69.2923C50.3297 69.2923 63.1621 61.3157 69.2314 46.749C78.2487 47.4427 80.1562 39.9864 80.1562 39.9864Z" fill="white"/>
</g>
<defs>
<clipPath id="clip0_448_10">
<rect width="90" height="90" fill="white"/>
</clipPath>
</defs>
</svg>
