<svg width="90" height="90" viewBox="0 0 90 90" fill="none" xmlns="http://www.w3.org/2000/svg">
<g clip-path="url(#clip0_448_10)">
<path d="M68.9062 0H21.0938C9.44399 0 0 9.44399 0 21.0938V68.9062C0 80.556 9.44399 90 21.0938 90H68.9062C80.556 90 90 80.556 90 68.9062V21.0938C90 9.44399 80.556 0 68.9062 0Z" fill="#FF6C37"/>
<path d="M59.4355 31.1526L41.6676 48.9209L36.6567 43.9105C54.1304 26.4371 55.857 27.953 59.4355 31.1526Z" fill="#EEEEEE"/>
<path d="M41.6678 49.3419C41.5412 49.3419 41.4572 49.3 41.3728 49.2156L36.3201 44.2052C36.2802 44.1672 36.2485 44.1215 36.2268 44.0708C36.205 44.0202 36.1938 43.9657 36.1938 43.9106C36.1938 43.8555 36.205 43.8009 36.2268 43.7503C36.2485 43.6996 36.2802 43.6539 36.3201 43.616C54.0885 25.8473 55.9408 27.5316 59.6885 30.8999C59.7729 30.9843 59.8147 31.0687 59.8147 31.1949C59.8147 31.3215 59.7729 31.4055 59.6885 31.4892L41.9202 49.2156C41.8783 49.3 41.7518 49.3419 41.6678 49.3419ZM37.2465 43.9106L41.6678 48.3315L58.8043 31.1949C55.6888 28.4158 53.5833 27.5738 37.2465 43.9106Z" fill="#FF6C37"/>
<path d="M46.762 54.0158L41.9199 49.1737L59.6882 31.4058C64.4463 36.2053 57.3303 43.9949 46.762 54.0158Z" fill="#EEEEEE"/>
<path d="M46.7621 54.437C46.6355 54.437 46.5518 54.3949 46.4675 54.3105L41.6254 49.4684C41.541 49.3844 41.541 49.3 41.541 49.1738C41.541 49.0472 41.5832 48.9632 41.6676 48.8788L59.4355 31.1109C59.4736 31.071 59.5194 31.0393 59.57 31.0177C59.6207 30.996 59.6752 30.9849 59.7303 30.9849C59.7854 30.9849 59.84 30.996 59.8906 31.0177C59.9413 31.0393 59.987 31.071 60.0251 31.1109C60.5627 31.6083 60.9874 32.2152 61.2707 32.8907C61.554 33.5661 61.6892 34.2945 61.6673 35.0266C61.5832 39.6999 56.2778 45.6367 47.0989 54.3105C46.9727 54.3949 46.8461 54.437 46.7621 54.437ZM42.5096 49.1738C45.2039 51.9104 46.3412 53.0055 46.7621 53.4263C53.8359 46.6897 60.6987 39.7843 60.7409 35.0266C60.7831 33.9318 60.3623 32.837 59.6461 31.9947L42.5096 49.1738Z" fill="#FF6C37"/>
<path d="M36.741 44.0367L40.3199 47.6156C40.404 47.7 40.404 47.7843 40.3199 47.8684C40.2777 47.9106 40.2777 47.9106 40.2359 47.9106L32.8249 49.5105C32.4463 49.5527 32.1095 49.3 32.0251 48.921C31.9829 48.7104 32.0673 48.5001 32.1939 48.3736L36.4882 44.0789C36.5726 43.9945 36.6988 43.9523 36.741 44.0367Z" fill="#EEEEEE"/>
<path d="M32.6988 49.9317C32.0674 49.9317 31.604 49.4262 31.604 48.7944C31.604 48.5002 31.7306 48.2052 31.9412 47.9946L36.2355 43.6999C36.4883 43.4893 36.8254 43.4893 37.0778 43.6999L40.6567 47.2788C40.9092 47.4894 40.9092 47.8684 40.6567 48.1208C40.5724 48.2052 40.4883 48.2474 40.3618 48.2896L32.9515 49.8895C32.8672 49.8895 32.7828 49.9317 32.6988 49.9317ZM36.6148 44.4997L32.4885 48.626C32.4042 48.7104 32.362 48.8366 32.4463 48.9628C32.4885 49.0894 32.6144 49.1316 32.741 49.0894L39.6882 47.5734L36.6148 44.4997Z" fill="#FF6C37"/>
<path d="M68.8249 21.3004C66.1302 18.69 61.7933 18.7741 59.1826 21.511C56.5722 24.2475 56.6566 28.5422 59.3932 31.1529C60.4734 32.1969 61.8689 32.854 63.3619 33.0216C64.8548 33.1892 66.3612 32.8578 67.6461 32.0793L62.8459 27.2791L68.8249 21.3004Z" fill="#EEEEEE"/>
<path d="M64.109 33.4687C60.1093 33.4687 56.8672 30.2266 56.8672 26.2266C56.8672 22.2265 60.1093 18.9844 64.109 18.9844C65.9618 18.9844 67.7723 19.7002 69.1195 21.0055C69.2039 21.0899 69.2461 21.1743 69.2461 21.3001C69.2461 21.4267 69.2039 21.5111 69.1195 21.5951L63.4354 27.2791L67.8985 31.7422C68.0673 31.911 68.0673 32.1634 67.8985 32.3318L67.8145 32.4162C66.7197 33.0894 65.4144 33.4687 64.109 33.4687ZM64.109 19.8689C60.5723 19.8689 57.7092 22.7317 57.7514 26.2688C57.7514 29.8055 60.6141 32.6686 64.1512 32.6268C65.1198 32.6268 66.088 32.4158 66.9721 31.9528L62.5512 27.5741C62.4669 27.4897 62.425 27.4054 62.425 27.2791C62.425 27.1526 62.4669 27.0686 62.5512 26.9845L68.1935 21.3423C67.0565 20.3741 65.625 19.8689 64.109 19.8689Z" fill="#FF6C37"/>
<path d="M68.9514 21.4267L68.8674 21.3423L62.8462 27.2791L67.6042 32.0372C68.0676 31.7422 68.5303 31.4058 68.9096 31.0268C69.5475 30.4019 70.055 29.6566 70.4028 28.8342C70.7506 28.0117 70.9317 27.1284 70.9356 26.2355C70.9394 25.3425 70.7661 24.4576 70.4255 23.6322C70.0849 22.8067 69.5839 22.0571 68.9514 21.4267Z" fill="#EEEEEE"/>
<path d="M67.6463 32.5003C67.5198 32.5003 67.4358 32.4581 67.3514 32.3737L62.5515 27.5738C62.4671 27.4895 62.4253 27.4055 62.4253 27.2792C62.4253 27.1527 62.4671 27.0683 62.5515 26.9843L68.5302 21.006C68.6989 20.8372 68.9513 20.8372 69.1197 21.006L69.2463 21.0903C72.0672 23.9109 72.0672 28.4584 69.2885 31.3219C68.8673 31.7427 68.404 32.1217 67.8988 32.4163C67.7726 32.4585 67.6885 32.5003 67.6463 32.5003ZM63.4357 27.2796L67.6885 31.5321C68.0253 31.3219 68.3621 31.0269 68.6145 30.7741C71.0147 28.374 71.1409 24.4587 68.8251 21.9323L63.4357 27.2796Z" fill="#FF6C37"/>
<path d="M60.1518 31.9102C59.6657 31.4249 59.007 31.1523 58.3201 31.1523C57.6333 31.1523 56.9745 31.4249 56.4885 31.9102L40.6147 47.7839L43.2676 50.4365L60.0674 35.7C61.1622 34.7733 61.2462 33.1311 60.3202 32.0367C60.2358 31.9945 60.1936 31.9524 60.1518 31.9102Z" fill="#EEEEEE"/>
<path d="M43.2254 50.8578C43.0992 50.8578 43.0148 50.8156 42.9304 50.7316L40.2779 48.0791C40.238 48.041 40.2063 47.9952 40.1847 47.9446C40.163 47.8939 40.1519 47.8394 40.1519 47.7843C40.1519 47.7292 40.163 47.6746 40.1847 47.624C40.2063 47.5733 40.238 47.5276 40.2779 47.4895L56.1513 31.6157C56.4299 31.3355 56.7613 31.1131 57.1262 30.9613C57.4911 30.8096 57.8825 30.7314 58.2777 30.7314C58.6729 30.7314 59.0642 30.8096 59.4292 30.9613C59.7941 31.1131 60.1254 31.3355 60.4041 31.6157C60.6844 31.8944 60.9068 32.2257 61.0585 32.5907C61.2103 32.9556 61.2884 33.3469 61.2884 33.7422C61.2884 34.1374 61.2103 34.5287 61.0585 34.8936C60.9068 35.2586 60.6844 35.5899 60.4041 35.8686L60.2779 35.9948L43.4778 50.7316C43.4358 50.8157 43.3517 50.8578 43.2254 50.8578ZM41.2042 47.7841L43.2676 49.8474L59.7727 35.363C60.6987 34.6051 60.7831 33.2157 60.0251 32.2897C59.2672 31.3637 57.8778 31.2793 56.9514 32.0366C56.9096 32.0787 56.8674 32.1209 56.783 32.1631L41.2042 47.7841Z" fill="#FF6C37"/>
<path d="M28.4462 65.8476C28.2775 65.9316 28.1935 66.1 28.2353 66.2684L28.9514 69.3003C29.1202 69.7211 28.8671 70.2267 28.404 70.3529C28.0672 70.4791 27.6886 70.3529 27.478 70.1005L22.8462 65.5108L37.962 50.395L43.183 50.479L46.7197 54.0161C45.8778 54.7319 40.7829 59.658 28.4462 65.8476Z" fill="#EEEEEE"/>
<path d="M28.1093 70.7735C27.7725 70.7735 27.4357 70.6473 27.2251 70.3948L22.6355 65.8052C22.5511 65.7212 22.5093 65.6368 22.5093 65.5106C22.5093 65.3844 22.5515 65.3 22.6358 65.2156L37.7513 50.1002C37.8356 50.0158 37.9619 49.9736 38.0462 49.9736L43.2673 50.058C43.3935 50.058 43.4775 50.1002 43.5615 50.1842L47.0986 53.7209C47.183 53.8053 47.2248 53.9315 47.2248 54.0577C47.2248 54.1843 47.183 54.2683 47.0564 54.3527L46.7618 54.6055C42.2987 58.5208 36.2353 62.4369 28.6985 66.1842L29.4147 69.1735C29.5409 69.7209 29.2881 70.3105 28.7829 70.6051C28.5301 70.7313 28.3199 70.7735 28.1093 70.7735ZM23.4775 65.5106L27.8147 69.8053C27.9406 70.0159 28.1933 70.0999 28.4039 69.9737C28.6145 69.8475 28.6989 69.5947 28.5727 69.3841L27.8569 66.3526C27.7725 65.9736 27.9406 65.6368 28.2777 65.4684C35.7301 61.7211 41.7513 57.8476 46.1722 54.0159L43.0567 50.9L38.2146 50.8156L23.4775 65.5106Z" fill="#FF6C37"/>
<path d="M19.2672 69.1316L22.8883 65.5105L28.2778 70.9L19.6884 70.3107C19.3094 70.2685 19.0566 69.9317 19.0988 69.5524C19.0988 69.384 19.1407 69.2156 19.2672 69.1316Z" fill="#EEEEEE"/>
<path d="M28.278 71.279L19.6465 70.6894C19.0147 70.6472 18.5935 70.1002 18.6357 69.4684C18.6779 69.2157 18.7623 68.9633 18.9729 68.7949L22.594 65.1738C22.632 65.1338 22.6777 65.1021 22.7283 65.0804C22.7789 65.0587 22.8335 65.0475 22.8886 65.0475C22.9437 65.0475 22.9982 65.0587 23.0488 65.0804C23.0995 65.1021 23.1452 65.1338 23.1832 65.1738L28.5726 70.5632C28.6992 70.6894 28.7414 70.8578 28.657 71.0266C28.5726 71.1949 28.4463 71.279 28.278 71.279ZM22.8886 66.1001L19.5624 69.4263C19.4359 69.5106 19.4359 69.7212 19.5624 69.8052C19.6046 69.8474 19.6468 69.8896 19.7308 69.8896L27.1833 70.3948L22.8886 66.1001ZM36.4884 52.3319C36.2356 52.3319 36.0672 52.1213 36.0672 51.9107C36.0672 51.7845 36.1094 51.7005 36.1938 51.6161L40.2779 47.532C40.3159 47.492 40.3616 47.4602 40.4123 47.4385C40.463 47.4167 40.5175 47.4055 40.5727 47.4055C40.6278 47.4055 40.6824 47.4167 40.7331 47.4385C40.7838 47.4602 40.8295 47.492 40.8675 47.532L43.52 50.1845C43.6462 50.3107 43.6884 50.437 43.6462 50.6057C43.604 50.7319 43.4778 50.8581 43.3098 50.9003L36.5728 52.3319H36.4884ZM40.5725 48.4162L37.7938 51.1953L42.3409 50.2264L40.5725 48.4162Z" fill="#FF6C37"/>
<path d="M43.183 50.4788L38.5515 51.4895C38.2147 51.5739 37.8776 51.3633 37.7935 51.0265C37.7514 50.8159 37.7935 50.6053 37.9619 50.4369L40.5301 47.8684L43.183 50.4788Z" fill="#EEEEEE"/>
<path d="M38.4672 51.9107C38.3286 51.9121 38.1911 51.8859 38.0627 51.8335C37.9344 51.7811 37.8178 51.7036 37.7198 51.6056C37.6217 51.5075 37.5442 51.3909 37.4919 51.2626C37.4395 51.1342 37.4132 50.9967 37.4146 50.8581C37.4146 50.5635 37.5408 50.3107 37.7092 50.1005L40.2777 47.532C40.3157 47.492 40.3615 47.4602 40.4121 47.4385C40.4628 47.4167 40.5174 47.4055 40.5725 47.4055C40.6277 47.4055 40.6822 47.4167 40.7329 47.4385C40.7836 47.4602 40.8293 47.492 40.8673 47.532L43.5198 50.1845C43.646 50.3107 43.6882 50.437 43.646 50.6057C43.6039 50.7319 43.4777 50.8581 43.3096 50.9003L38.6778 51.9107H38.4672ZM40.5723 48.4162L38.2988 50.6897C38.2148 50.7741 38.2148 50.8581 38.2566 50.9425C38.2988 51.0266 38.383 51.0687 38.5094 51.0687L42.3829 50.2264L40.5723 48.4162ZM68.9934 25.4683C68.9093 25.2159 68.6144 25.0897 68.3616 25.174C68.1092 25.2577 67.983 25.5527 68.0673 25.8054C68.0673 25.8476 68.1092 25.8898 68.1092 25.9316C68.3616 26.4372 68.2779 27.0686 67.9408 27.5316C67.7724 27.7425 67.8146 28.0371 67.983 28.2055C68.1935 28.3736 68.4882 28.3321 68.6566 28.1212C69.2883 27.321 69.4145 26.3106 68.9934 25.4683Z" fill="#FF6C37"/>
</g>
<defs>
<clipPath id="clip0_448_10">
<rect width="90" height="90" fill="white"/>
</clipPath>
</defs>
</svg>
