<svg width="90" height="90" viewBox="0 0 90 90" fill="none" xmlns="http://www.w3.org/2000/svg">
<path d="M55.7156 64.2797V60.0047H51.4406V64.2797H30.0094V60.0047H25.7344V47.1516H30.0094V42.8484H51.4406V47.1516H55.7156V42.8484H85.725V47.1516H90V38.5734H72.8719V34.3125H68.5969V38.5875H42.8625V34.3125H38.5875V30.0094H42.8625V25.7203H68.5969V29.9953H72.8719V17.1562H68.5969V21.4313H42.8625V17.1562H38.5875V21.4313H4.30312V25.7344H0V38.5875H4.30312V42.8625H8.57812V47.1656H12.8812V42.8625H21.4312V47.1656H17.1562V60.0187H21.4312V64.2938H12.8812V60.0187H8.57812V64.2938H4.30312V68.5969H0V81.45H4.30312V85.725H90V77.1469H85.725V81.45H51.4406V77.1469H47.1656V72.8719H51.4406V68.5969H85.725V72.8719H90V60.0187H85.725V64.2938L55.7156 64.2797ZM17.1562 34.3125H8.57812V30.0094H17.1562V34.3125ZM38.5875 72.8719H34.3125V77.1469H38.5875V81.45H34.3125V77.1469H30.0094V72.8719H34.3125V68.5969H38.5875V72.8719Z" fill="#1C2176"/>
<path d="M81.45 47.1516H85.725V60.0047H81.45V47.1516ZM55.7156 72.8578H85.725V77.1328H55.7156V72.8578ZM60.0187 55.7016H77.1469V60.0047H60.0187V55.7016ZM60.0187 47.1516H77.1469V51.4266H60.0187V47.1516ZM47.1656 29.9953H68.5969V34.2984H47.1656V29.9953ZM47.1656 12.8672H68.5969V17.1422H47.1656V12.8672ZM47.1656 47.1516H51.4406V60.0047H47.1656V47.1516ZM34.3125 12.8672H38.5875V17.1422H34.3125V12.8672ZM8.57812 12.8672H17.1562V17.1422H8.57812V12.8672ZM38.5875 8.56406V12.8672H42.8625V8.56406H68.5969V12.8672H72.8719V4.28906H4.30312V8.56406H38.5875ZM4.30312 47.1516H8.57812V60.0047H4.30312V47.1516ZM0 8.56406H4.30312V21.4172H0V8.56406Z" fill="#1C2176"/>
</svg>
