<svg width="300" height="200" viewBox="0 0 300 200" fill="none" xmlns="http://www.w3.org/2000/svg">
<rect x="100" width="100" height="200" fill="#DEBAFF"/>
<rect width="100" height="200" fill="#1C2176"/>
<rect x="200" width="100" height="200" fill="#9BAFFF"/>
<path d="M30.0824 104L31.5142 95.2727H32.7074L31.2756 104H30.0824ZM26.1491 101.75L26.3494 100.557H33.0653L32.8651 101.75H26.1491ZM27.0142 104L28.446 95.2727H29.6392L28.2074 104H27.0142ZM26.6562 98.7159L26.8523 97.5227H33.5682L33.3722 98.7159H26.6562ZM38.0479 95.2727V104H36.467V96.8111H36.4158L34.3746 98.1151V96.6662L36.5437 95.2727H38.0479ZM43.136 104.128C42.4826 104.128 41.9215 103.984 41.4528 103.697C40.9869 103.411 40.6275 103.014 40.3746 102.509C40.1246 102 39.9996 101.415 39.9996 100.753C39.9996 100.088 40.1275 99.5014 40.3832 98.9929C40.6388 98.4815 40.9996 98.0838 41.4656 97.7997C41.9343 97.5128 42.4883 97.3693 43.1275 97.3693C43.6587 97.3693 44.1289 97.4673 44.538 97.6634C44.9499 97.8565 45.2781 98.1307 45.5224 98.4858C45.7667 98.8381 45.9059 99.25 45.94 99.7216H44.4656C44.4059 99.4062 44.2638 99.1435 44.0394 98.9332C43.8178 98.7202 43.521 98.6136 43.1488 98.6136C42.8335 98.6136 42.5565 98.6989 42.3178 98.8693C42.0792 99.0369 41.8931 99.2784 41.7596 99.5938C41.6289 99.9091 41.5636 100.287 41.5636 100.727C41.5636 101.173 41.6289 101.557 41.7596 101.878C41.8903 102.196 42.0735 102.442 42.3093 102.615C42.5479 102.786 42.8278 102.871 43.1488 102.871C43.3761 102.871 43.5792 102.828 43.7582 102.743C43.94 102.655 44.092 102.528 44.2141 102.364C44.3363 102.199 44.4201 101.999 44.4656 101.763H45.94C45.9031 102.226 45.7667 102.636 45.5309 102.994C45.2951 103.349 44.9741 103.628 44.5678 103.83C44.1616 104.028 43.6843 104.128 43.136 104.128ZM47.1896 104V102.858L50.2195 99.8878C50.5092 99.5952 50.7507 99.3352 50.9439 99.108C51.1371 98.8807 51.282 98.6605 51.3786 98.4474C51.4751 98.2344 51.5234 98.0071 51.5234 97.7656C51.5234 97.4901 51.4609 97.2543 51.3359 97.0582C51.2109 96.8594 51.0391 96.706 50.8203 96.598C50.6016 96.4901 50.353 96.4361 50.0746 96.4361C49.7876 96.4361 49.5362 96.4957 49.3203 96.6151C49.1044 96.7315 48.9368 96.8977 48.8175 97.1136C48.701 97.3295 48.6428 97.5866 48.6428 97.8849H47.1385C47.1385 97.331 47.2649 96.8494 47.5178 96.4403C47.7706 96.0312 48.1186 95.7145 48.5618 95.4901C49.0078 95.2656 49.5192 95.1534 50.0959 95.1534C50.6811 95.1534 51.1953 95.2628 51.6385 95.4815C52.0817 95.7003 52.4254 96 52.6697 96.3807C52.9169 96.7614 53.0405 97.196 53.0405 97.6847C53.0405 98.0114 52.978 98.3324 52.853 98.6477C52.728 98.9631 52.5078 99.3125 52.1925 99.696C51.88 100.08 51.4411 100.544 50.8757 101.089L49.3714 102.619V102.679H53.1726V104H47.1896ZM58.1925 95.2727V104H56.6115V96.8111H56.5604L54.5192 98.1151V96.6662L56.6882 95.2727H58.1925ZM60.728 104L64.4396 96.6534V96.5938H60.1314V95.2727H66.076V96.6236L62.3686 104H60.728ZM70.4599 104.119C70.0423 104.116 69.6346 104.044 69.2369 103.902C68.8391 103.757 68.4812 103.523 68.163 103.199C67.8448 102.872 67.592 102.439 67.4045 101.899C67.217 101.357 67.1246 100.685 67.1275 99.8835C67.1275 99.1364 67.207 98.4702 67.3661 97.8849C67.5252 97.2997 67.7539 96.8054 68.0522 96.402C68.3505 95.9957 68.7099 95.6861 69.1303 95.473C69.5536 95.2599 70.0266 95.1534 70.5494 95.1534C71.0977 95.1534 71.5835 95.2614 72.0067 95.4773C72.4329 95.6932 72.7766 95.9886 73.038 96.3636C73.2994 96.7358 73.4613 97.1562 73.5238 97.625H71.9684C71.8888 97.2898 71.7255 97.0227 71.4783 96.8239C71.234 96.6222 70.9244 96.5213 70.5494 96.5213C69.9442 96.5213 69.4783 96.7841 69.1516 97.3097C68.8278 97.8352 68.6644 98.5568 68.6616 99.4744H68.7212C68.8604 99.2244 69.0408 99.0099 69.2624 98.831C69.484 98.652 69.734 98.5142 70.0124 98.4176C70.2937 98.3182 70.5906 98.2685 70.9031 98.2685C71.4144 98.2685 71.8732 98.3906 72.2795 98.6349C72.6886 98.8793 73.0124 99.2159 73.2511 99.6449C73.4897 100.071 73.6076 100.56 73.6048 101.111C73.6076 101.685 73.4769 102.2 73.2127 102.658C72.9485 103.112 72.5806 103.47 72.109 103.732C71.6374 103.993 71.0877 104.122 70.4599 104.119ZM70.4513 102.841C70.761 102.841 71.038 102.766 71.2823 102.615C71.5266 102.464 71.7198 102.261 71.8619 102.006C72.0039 101.75 72.0735 101.463 72.0707 101.145C72.0735 100.832 72.0053 100.55 71.8661 100.297C71.7298 100.044 71.5408 99.8437 71.2994 99.696C71.0579 99.5483 70.7823 99.4744 70.4727 99.4744C70.2425 99.4744 70.0281 99.5185 69.8292 99.6065C69.6303 99.6946 69.457 99.8168 69.3093 99.973C69.1616 100.126 69.0451 100.305 68.9599 100.51C68.8775 100.712 68.8349 100.928 68.832 101.158C68.8349 101.462 68.9059 101.741 69.0451 101.997C69.1843 102.253 69.3761 102.457 69.6204 102.611C69.8647 102.764 70.1417 102.841 70.4513 102.841Z" fill="white"/>
<path d="M134.082 104L135.514 95.2727H136.707L135.276 104H134.082ZM130.149 101.75L130.349 100.557H137.065L136.865 101.75H130.149ZM131.014 104L132.446 95.2727H133.639L132.207 104H131.014ZM130.656 98.7159L130.852 97.5227H137.568L137.372 98.7159H130.656ZM140.944 104.115C140.43 104.115 139.97 103.983 139.564 103.719C139.157 103.455 138.836 103.071 138.6 102.568C138.365 102.065 138.247 101.455 138.247 100.736C138.247 100.009 138.366 99.3949 138.605 98.8949C138.846 98.392 139.172 98.0128 139.581 97.7571C139.99 97.4986 140.446 97.3693 140.949 97.3693C141.332 97.3693 141.647 97.4347 141.895 97.5653C142.142 97.6932 142.338 97.848 142.483 98.0298C142.627 98.2088 142.74 98.3778 142.819 98.5369H142.883V95.2727H144.43V104H142.913V102.969H142.819C142.74 103.128 142.625 103.297 142.474 103.476C142.324 103.652 142.125 103.803 141.877 103.928C141.63 104.053 141.319 104.115 140.944 104.115ZM141.375 102.849C141.701 102.849 141.98 102.761 142.21 102.585C142.44 102.406 142.615 102.158 142.734 101.839C142.853 101.521 142.913 101.151 142.913 100.727C142.913 100.304 142.853 99.9361 142.734 99.6236C142.618 99.3111 142.444 99.0682 142.214 98.8949C141.987 98.7216 141.707 98.6349 141.375 98.6349C141.031 98.6349 140.744 98.7244 140.514 98.9034C140.284 99.0824 140.11 99.3295 139.994 99.6449C139.877 99.9602 139.819 100.321 139.819 100.727C139.819 101.136 139.877 101.501 139.994 101.822C140.113 102.141 140.288 102.392 140.518 102.577C140.751 102.759 141.037 102.849 141.375 102.849ZM148.972 104.128C148.315 104.128 147.749 103.991 147.271 103.719C146.797 103.443 146.432 103.054 146.176 102.551C145.92 102.045 145.793 101.45 145.793 100.766C145.793 100.092 145.92 99.5014 146.176 98.9929C146.435 98.4815 146.795 98.0838 147.259 97.7997C147.722 97.5128 148.266 97.3693 148.891 97.3693C149.294 97.3693 149.675 97.4347 150.033 97.5653C150.393 97.6932 150.712 97.892 150.987 98.1619C151.266 98.4318 151.484 98.7756 151.643 99.1932C151.803 99.608 151.882 100.102 151.882 100.676V101.149H146.517V100.109H150.403C150.401 99.8139 150.337 99.5511 150.212 99.321C150.087 99.0881 149.912 98.9048 149.688 98.7713C149.466 98.6378 149.207 98.571 148.912 98.571C148.597 98.571 148.32 98.6477 148.081 98.8011C147.842 98.9517 147.656 99.1506 147.523 99.3977C147.392 99.642 147.325 99.9105 147.322 100.203V101.111C147.322 101.491 147.392 101.818 147.531 102.091C147.67 102.361 147.865 102.568 148.115 102.713C148.365 102.855 148.658 102.926 148.993 102.926C149.217 102.926 149.42 102.895 149.602 102.832C149.784 102.767 149.942 102.672 150.075 102.547C150.209 102.422 150.31 102.267 150.378 102.082L151.818 102.244C151.727 102.625 151.554 102.957 151.298 103.241C151.045 103.523 150.722 103.741 150.327 103.898C149.932 104.051 149.48 104.128 148.972 104.128ZM153.255 104V95.2727H154.798V98.5369H154.862C154.941 98.3778 155.054 98.2088 155.199 98.0298C155.343 97.848 155.539 97.6932 155.787 97.5653C156.034 97.4347 156.349 97.3693 156.733 97.3693C157.238 97.3693 157.694 97.4986 158.1 97.7571C158.51 98.0128 158.833 98.392 159.072 98.8949C159.314 99.3949 159.434 100.009 159.434 100.736C159.434 101.455 159.316 102.065 159.081 102.568C158.845 103.071 158.524 103.455 158.118 103.719C157.711 103.983 157.251 104.115 156.737 104.115C156.362 104.115 156.051 104.053 155.804 103.928C155.556 103.803 155.358 103.652 155.207 103.476C155.059 103.297 154.944 103.128 154.862 102.969H154.772V104H153.255ZM154.768 100.727C154.768 101.151 154.828 101.521 154.947 101.839C155.069 102.158 155.244 102.406 155.471 102.585C155.701 102.761 155.98 102.849 156.306 102.849C156.647 102.849 156.933 102.759 157.163 102.577C157.393 102.392 157.566 102.141 157.683 101.822C157.802 101.501 157.862 101.136 157.862 100.727C157.862 100.321 157.804 99.9602 157.687 99.6449C157.571 99.3295 157.397 99.0824 157.167 98.9034C156.937 98.7244 156.65 98.6349 156.306 98.6349C155.977 98.6349 155.697 98.7216 155.467 98.8949C155.237 99.0682 155.062 99.3111 154.943 99.6236C154.826 99.9361 154.768 100.304 154.768 100.727ZM162.629 104.132C162.214 104.132 161.841 104.058 161.509 103.911C161.179 103.76 160.918 103.538 160.724 103.246C160.534 102.953 160.439 102.592 160.439 102.163C160.439 101.794 160.507 101.489 160.643 101.247C160.78 101.006 160.966 100.812 161.202 100.668C161.438 100.523 161.703 100.413 161.999 100.339C162.297 100.263 162.605 100.207 162.923 100.173C163.307 100.134 163.618 100.098 163.857 100.067C164.095 100.033 164.268 99.9815 164.376 99.9134C164.487 99.8423 164.543 99.733 164.543 99.5852V99.5597C164.543 99.2386 164.447 98.9901 164.257 98.8139C164.067 98.6378 163.793 98.5497 163.435 98.5497C163.057 98.5497 162.757 98.6321 162.536 98.7969C162.317 98.9616 162.169 99.1562 162.092 99.3807L160.652 99.1761C160.766 98.7784 160.953 98.446 161.214 98.179C161.476 97.9091 161.795 97.7074 162.173 97.5739C162.551 97.4375 162.969 97.3693 163.426 97.3693C163.741 97.3693 164.055 97.4062 164.368 97.4801C164.68 97.554 164.966 97.6761 165.224 97.8466C165.483 98.0142 165.69 98.2429 165.847 98.5327C166.006 98.8224 166.085 99.1847 166.085 99.6193V104H164.602V103.101H164.551C164.457 103.283 164.325 103.453 164.155 103.612C163.987 103.768 163.776 103.895 163.52 103.991C163.267 104.085 162.97 104.132 162.629 104.132ZM163.03 102.999C163.339 102.999 163.608 102.937 163.835 102.815C164.063 102.69 164.237 102.526 164.359 102.321C164.484 102.116 164.547 101.893 164.547 101.652V100.881C164.499 100.92 164.416 100.957 164.3 100.991C164.186 101.026 164.058 101.055 163.916 101.081C163.774 101.107 163.634 101.129 163.494 101.149C163.355 101.169 163.234 101.186 163.132 101.2C162.902 101.232 162.696 101.283 162.514 101.354C162.332 101.425 162.189 101.524 162.084 101.652C161.979 101.777 161.926 101.939 161.926 102.138C161.926 102.422 162.03 102.636 162.237 102.781C162.445 102.926 162.709 102.999 163.03 102.999ZM170.952 97.4545V98.6477H167.082V97.4545H170.952ZM168.05 104V96.8366C168.05 96.3963 168.141 96.0298 168.322 95.7372C168.507 95.4446 168.754 95.2259 169.064 95.081C169.374 94.9361 169.717 94.8636 170.095 94.8636C170.362 94.8636 170.599 94.8849 170.807 94.9276C171.014 94.9702 171.168 95.0085 171.267 95.0426L170.96 96.2358C170.895 96.2159 170.812 96.196 170.713 96.1761C170.614 96.1534 170.503 96.142 170.381 96.142C170.094 96.142 169.891 96.2116 169.771 96.3509C169.655 96.4872 169.597 96.6832 169.597 96.9389V104H168.05ZM175.475 97.4545V98.6477H171.606V97.4545H175.475ZM172.573 104V96.8366C172.573 96.3963 172.664 96.0298 172.846 95.7372C173.031 95.4446 173.278 95.2259 173.587 95.081C173.897 94.9361 174.241 94.8636 174.619 94.8636C174.886 94.8636 175.123 94.8849 175.33 94.9276C175.538 94.9702 175.691 95.0085 175.79 95.0426L175.484 96.2358C175.418 96.2159 175.336 96.196 175.237 96.1761C175.137 96.1534 175.026 96.142 174.904 96.142C174.617 96.142 174.414 96.2116 174.295 96.3509C174.178 96.4872 174.12 96.6832 174.12 96.9389V104H172.573Z" fill="#1C2176"/>
<path d="M231.082 104L232.514 95.2727H233.707L232.276 104H231.082ZM227.149 101.75L227.349 100.557H234.065L233.865 101.75H227.149ZM228.014 104L229.446 95.2727H230.639L229.207 104H228.014ZM227.656 98.7159L227.852 97.5227H234.568L234.372 98.7159H227.656ZM238.528 95.1534C238.946 95.1562 239.352 95.2301 239.747 95.375C240.145 95.517 240.502 95.75 240.821 96.0739C241.139 96.3949 241.392 96.8253 241.579 97.3651C241.767 97.9048 241.86 98.5724 241.86 99.3679C241.863 100.118 241.784 100.788 241.622 101.379C241.463 101.967 241.234 102.464 240.936 102.871C240.637 103.277 240.278 103.587 239.858 103.8C239.437 104.013 238.964 104.119 238.439 104.119C237.887 104.119 237.399 104.011 236.973 103.795C236.549 103.58 236.207 103.284 235.946 102.909C235.684 102.534 235.524 102.105 235.464 101.622H237.02C237.099 101.969 237.261 102.244 237.505 102.449C237.752 102.651 238.064 102.751 238.439 102.751C239.044 102.751 239.51 102.489 239.836 101.963C240.163 101.437 240.326 100.707 240.326 99.7727H240.267C240.127 100.023 239.947 100.239 239.725 100.42C239.504 100.599 239.252 100.737 238.971 100.834C238.693 100.93 238.397 100.979 238.085 100.979C237.574 100.979 237.113 100.857 236.704 100.612C236.298 100.368 235.975 100.033 235.737 99.6065C235.501 99.1804 235.382 98.6932 235.379 98.1449C235.379 97.5767 235.51 97.0668 235.771 96.6151C236.035 96.1605 236.403 95.8026 236.875 95.5412C237.346 95.277 237.897 95.1477 238.528 95.1534ZM238.532 96.4318C238.225 96.4318 237.949 96.5071 237.701 96.6577C237.457 96.8054 237.264 97.0071 237.122 97.2628C236.983 97.5156 236.913 97.7983 236.913 98.1108C236.916 98.4205 236.985 98.7017 237.122 98.9545C237.261 99.2074 237.45 99.4077 237.689 99.5554C237.93 99.7031 238.206 99.777 238.515 99.777C238.745 99.777 238.96 99.733 239.159 99.6449C239.358 99.5568 239.531 99.4347 239.679 99.2784C239.829 99.1193 239.946 98.9389 240.028 98.7372C240.113 98.5355 240.154 98.3224 240.152 98.098C240.152 97.7997 240.081 97.5241 239.939 97.2713C239.799 97.0185 239.608 96.8153 239.363 96.6619C239.122 96.5085 238.845 96.4318 238.532 96.4318ZM243.365 104V95.2727H244.907V98.5369H244.971C245.051 98.3778 245.163 98.2088 245.308 98.0298C245.453 97.848 245.649 97.6932 245.896 97.5653C246.143 97.4347 246.458 97.3693 246.842 97.3693C247.348 97.3693 247.804 97.4986 248.21 97.7571C248.619 98.0128 248.943 98.392 249.181 98.8949C249.423 99.3949 249.544 100.009 249.544 100.736C249.544 101.455 249.426 102.065 249.19 102.568C248.954 103.071 248.633 103.455 248.227 103.719C247.821 103.983 247.36 104.115 246.846 104.115C246.471 104.115 246.16 104.053 245.913 103.928C245.666 103.803 245.467 103.652 245.316 103.476C245.169 103.297 245.054 103.128 244.971 102.969H244.882V104H243.365ZM244.877 100.727C244.877 101.151 244.937 101.521 245.056 101.839C245.179 102.158 245.353 102.406 245.581 102.585C245.811 102.761 246.089 102.849 246.416 102.849C246.757 102.849 247.042 102.759 247.272 102.577C247.502 102.392 247.676 102.141 247.792 101.822C247.912 101.501 247.971 101.136 247.971 100.727C247.971 100.321 247.913 99.9602 247.797 99.6449C247.68 99.3295 247.507 99.0824 247.277 98.9034C247.047 98.7244 246.76 98.6349 246.416 98.6349C246.086 98.6349 245.806 98.7216 245.576 98.8949C245.346 99.0682 245.172 99.3111 245.052 99.6236C244.936 99.9361 244.877 100.304 244.877 100.727ZM252.739 104.132C252.324 104.132 251.95 104.058 251.618 103.911C251.288 103.76 251.027 103.538 250.834 103.246C250.643 102.953 250.548 102.592 250.548 102.163C250.548 101.794 250.616 101.489 250.753 101.247C250.889 101.006 251.075 100.812 251.311 100.668C251.547 100.523 251.813 100.413 252.108 100.339C252.406 100.263 252.714 100.207 253.033 100.173C253.416 100.134 253.727 100.098 253.966 100.067C254.205 100.033 254.378 99.9815 254.486 99.9134C254.597 99.8423 254.652 99.733 254.652 99.5852V99.5597C254.652 99.2386 254.557 98.9901 254.366 98.8139C254.176 98.6378 253.902 98.5497 253.544 98.5497C253.166 98.5497 252.866 98.6321 252.645 98.7969C252.426 98.9616 252.278 99.1562 252.202 99.3807L250.761 99.1761C250.875 98.7784 251.063 98.446 251.324 98.179C251.585 97.9091 251.905 97.7074 252.283 97.5739C252.661 97.4375 253.078 97.3693 253.536 97.3693C253.851 97.3693 254.165 97.4062 254.477 97.4801C254.79 97.554 255.075 97.6761 255.334 97.8466C255.592 98.0142 255.8 98.2429 255.956 98.5327C256.115 98.8224 256.195 99.1847 256.195 99.6193V104H254.712V103.101H254.661C254.567 103.283 254.435 103.453 254.264 103.612C254.097 103.768 253.885 103.895 253.629 103.991C253.376 104.085 253.08 104.132 252.739 104.132ZM253.139 102.999C253.449 102.999 253.717 102.937 253.945 102.815C254.172 102.69 254.347 102.526 254.469 102.321C254.594 102.116 254.656 101.893 254.656 101.652V100.881C254.608 100.92 254.526 100.957 254.409 100.991C254.295 101.026 254.168 101.055 254.026 101.081C253.884 101.107 253.743 101.129 253.604 101.149C253.464 101.169 253.344 101.186 253.241 101.2C253.011 101.232 252.805 101.283 252.624 101.354C252.442 101.425 252.298 101.524 252.193 101.652C252.088 101.777 252.036 101.939 252.036 102.138C252.036 102.422 252.139 102.636 252.347 102.781C252.554 102.926 252.818 102.999 253.139 102.999ZM261.061 97.4545V98.6477H257.192V97.4545H261.061ZM258.159 104V96.8366C258.159 96.3963 258.25 96.0298 258.432 95.7372C258.616 95.4446 258.864 95.2259 259.173 95.081C259.483 94.9361 259.827 94.8636 260.205 94.8636C260.472 94.8636 260.709 94.8849 260.916 94.9276C261.124 94.9702 261.277 95.0085 261.376 95.0426L261.07 96.2358C261.004 96.2159 260.922 96.196 260.822 96.1761C260.723 96.1534 260.612 96.142 260.49 96.142C260.203 96.142 260 96.2116 259.881 96.3509C259.764 96.4872 259.706 96.6832 259.706 96.9389V104H258.159ZM265.585 97.4545V98.6477H261.715V97.4545H265.585ZM262.683 104V96.8366C262.683 96.3963 262.773 96.0298 262.955 95.7372C263.14 95.4446 263.387 95.2259 263.697 95.081C264.006 94.9361 264.35 94.8636 264.728 94.8636C264.995 94.8636 265.232 94.8849 265.44 94.9276C265.647 94.9702 265.8 95.0085 265.9 95.0426L265.593 96.2358C265.528 96.2159 265.445 96.196 265.346 96.1761C265.246 96.1534 265.136 96.142 265.013 96.142C264.727 96.142 264.523 96.2116 264.404 96.3509C264.288 96.4872 264.229 96.6832 264.229 96.9389V104H262.683ZM270.108 97.4545V98.6477H266.239V97.4545H270.108ZM267.206 104V96.8366C267.206 96.3963 267.297 96.0298 267.479 95.7372C267.663 95.4446 267.911 95.2259 268.22 95.081C268.53 94.9361 268.874 94.8636 269.251 94.8636C269.518 94.8636 269.756 94.8849 269.963 94.9276C270.17 94.9702 270.324 95.0085 270.423 95.0426L270.116 96.2358C270.051 96.2159 269.969 96.196 269.869 96.1761C269.77 96.1534 269.659 96.142 269.537 96.142C269.25 96.142 269.047 96.2116 268.928 96.3509C268.811 96.4872 268.753 96.6832 268.753 96.9389V104H267.206Z" fill="#1C2176"/>
</svg>
