<svg width="300" height="200" viewBox="0 0 300 200" fill="none" xmlns="http://www.w3.org/2000/svg">
<rect x="100" width="100" height="200" fill="#A9B9FA"/>
<rect width="100" height="200" fill="#1C2176"/>
<path d="M200 0H300V200H200V0Z" fill="#CA91FF"/>
<path d="M30.0824 104L31.5142 95.2727H32.7074L31.2756 104H30.0824ZM26.1491 101.75L26.3494 100.557H33.0653L32.8651 101.75H26.1491ZM27.0142 104L28.446 95.2727H29.6392L28.2074 104H27.0142ZM26.6562 98.7159L26.8523 97.5227H33.5682L33.3722 98.7159H26.6562ZM38.0479 95.2727V104H36.467V96.8111H36.4158L34.3746 98.1151V96.6662L36.5437 95.2727H38.0479ZM47.8192 98.2173H46.2255C46.18 97.956 46.0962 97.7244 45.9741 97.5227C45.8519 97.3182 45.6999 97.1449 45.5181 97.0028C45.3363 96.8608 45.1289 96.7543 44.896 96.6832C44.6658 96.6094 44.4173 96.5724 44.1502 96.5724C43.6758 96.5724 43.2553 96.6918 42.8888 96.9304C42.5224 97.1662 42.2354 97.5128 42.0281 97.9702C41.8207 98.4247 41.717 98.9801 41.717 99.6364C41.717 100.304 41.8207 100.866 42.0281 101.324C42.2383 101.778 42.5252 102.122 42.8888 102.355C43.2553 102.585 43.6744 102.7 44.146 102.7C44.4073 102.7 44.6516 102.666 44.8789 102.598C45.109 102.527 45.315 102.423 45.4968 102.287C45.6815 102.151 45.8363 101.983 45.9613 101.784C46.0891 101.585 46.1772 101.358 46.2255 101.102L47.8192 101.111C47.7596 101.526 47.6303 101.915 47.4315 102.278C47.2354 102.642 46.9783 102.963 46.6602 103.241C46.342 103.517 45.9698 103.733 45.5437 103.889C45.1175 104.043 44.6445 104.119 44.1246 104.119C43.3576 104.119 42.6729 103.942 42.0707 103.587C41.4684 103.232 40.994 102.719 40.6474 102.048C40.3008 101.378 40.1275 100.574 40.1275 99.6364C40.1275 98.696 40.3022 97.892 40.6516 97.2244C41.0011 96.554 41.4769 96.0412 42.0792 95.6861C42.6815 95.331 43.3633 95.1534 44.1246 95.1534C44.6104 95.1534 45.0621 95.2216 45.4798 95.358C45.8974 95.4943 46.2695 95.6946 46.5962 95.9588C46.9229 96.2202 47.1914 96.5412 47.4016 96.9219C47.6147 97.2997 47.7539 97.7315 47.8192 98.2173ZM49.1818 104V102.858L52.2116 99.8878C52.5014 99.5952 52.7429 99.3352 52.9361 99.108C53.1293 98.8807 53.2741 98.6605 53.3707 98.4474C53.4673 98.2344 53.5156 98.0071 53.5156 97.7656C53.5156 97.4901 53.4531 97.2543 53.3281 97.0582C53.2031 96.8594 53.0312 96.706 52.8125 96.598C52.5938 96.4901 52.3452 96.4361 52.0668 96.4361C51.7798 96.4361 51.5284 96.4957 51.3125 96.6151C51.0966 96.7315 50.929 96.8977 50.8097 97.1136C50.6932 97.3295 50.6349 97.5866 50.6349 97.8849H49.1307C49.1307 97.331 49.2571 96.8494 49.5099 96.4403C49.7628 96.0312 50.1108 95.7145 50.554 95.4901C51 95.2656 51.5114 95.1534 52.0881 95.1534C52.6733 95.1534 53.1875 95.2628 53.6307 95.4815C54.0739 95.7003 54.4176 96 54.6619 96.3807C54.9091 96.7614 55.0327 97.196 55.0327 97.6847C55.0327 98.0114 54.9702 98.3324 54.8452 98.6477C54.7202 98.9631 54.5 99.3125 54.1847 99.696C53.8722 100.08 53.4332 100.544 52.8679 101.089L51.3636 102.619V102.679H55.1648V104H49.1818ZM60.1847 95.2727V104H58.6037V96.8111H58.5526L56.5114 98.1151V96.6662L58.6804 95.2727H60.1847ZM62.7202 104L66.4318 96.6534V96.5938H62.1236V95.2727H68.0682V96.6236L64.3608 104H62.7202ZM72.4521 104.119C72.0344 104.116 71.6268 104.044 71.229 103.902C70.8313 103.757 70.4734 103.523 70.1552 103.199C69.837 102.872 69.5842 102.439 69.3967 101.899C69.2092 101.357 69.1168 100.685 69.1197 99.8835C69.1197 99.1364 69.1992 98.4702 69.3583 97.8849C69.5174 97.2997 69.7461 96.8054 70.0444 96.402C70.3427 95.9957 70.7021 95.6861 71.1225 95.473C71.5458 95.2599 72.0188 95.1534 72.5415 95.1534C73.0898 95.1534 73.5756 95.2614 73.9989 95.4773C74.4251 95.6932 74.7688 95.9886 75.0302 96.3636C75.2915 96.7358 75.4535 97.1562 75.516 97.625H73.9606C73.881 97.2898 73.7177 97.0227 73.4705 96.8239C73.2262 96.6222 72.9165 96.5213 72.5415 96.5213C71.9364 96.5213 71.4705 96.7841 71.1438 97.3097C70.82 97.8352 70.6566 98.5568 70.6538 99.4744H70.7134C70.8526 99.2244 71.033 99.0099 71.2546 98.831C71.4762 98.652 71.7262 98.5142 72.0046 98.4176C72.2859 98.3182 72.5827 98.2685 72.8952 98.2685C73.4066 98.2685 73.8654 98.3906 74.2717 98.6349C74.6808 98.8793 75.0046 99.2159 75.2433 99.6449C75.4819 100.071 75.5998 100.56 75.5969 101.111C75.5998 101.685 75.4691 102.2 75.2049 102.658C74.9407 103.112 74.5728 103.47 74.1012 103.732C73.6296 103.993 73.0799 104.122 72.4521 104.119ZM72.4435 102.841C72.7532 102.841 73.0302 102.766 73.2745 102.615C73.5188 102.464 73.712 102.261 73.854 102.006C73.9961 101.75 74.0657 101.463 74.0629 101.145C74.0657 100.832 73.9975 100.55 73.8583 100.297C73.7219 100.044 73.533 99.8437 73.2915 99.696C73.0501 99.5483 72.7745 99.4744 72.4648 99.4744C72.2347 99.4744 72.0202 99.5185 71.8214 99.6065C71.6225 99.6946 71.4492 99.8168 71.3015 99.973C71.1538 100.126 71.0373 100.305 70.9521 100.51C70.8697 100.712 70.8271 100.928 70.8242 101.158C70.8271 101.462 70.8981 101.741 71.0373 101.997C71.1765 102.253 71.3683 102.457 71.6126 102.611C71.8569 102.764 72.1339 102.841 72.4435 102.841Z" fill="white"/>
<path d="M126.082 104L127.514 95.2727H128.707L127.276 104H126.082ZM122.149 101.75L122.349 100.557H129.065L128.865 101.75H122.149ZM123.014 104L124.446 95.2727H125.639L124.207 104H123.014ZM122.656 98.7159L122.852 97.5227H129.568L129.372 98.7159H122.656ZM131.704 104H130.017L133.089 95.2727H135.041L138.118 104H136.43L134.099 97.0625H134.031L131.704 104ZM131.76 100.578H136.362V101.848H131.76V100.578ZM142.212 95.1534C142.629 95.1562 143.036 95.2301 143.43 95.375C143.828 95.517 144.186 95.75 144.504 96.0739C144.822 96.3949 145.075 96.8253 145.263 97.3651C145.45 97.9048 145.544 98.5724 145.544 99.3679C145.547 100.118 145.467 100.788 145.305 101.379C145.146 101.967 144.918 102.464 144.619 102.871C144.321 103.277 143.962 103.587 143.541 103.8C143.121 104.013 142.648 104.119 142.122 104.119C141.571 104.119 141.082 104.011 140.656 103.795C140.233 103.58 139.891 103.284 139.629 102.909C139.368 102.534 139.207 102.105 139.148 101.622H140.703C140.783 101.969 140.945 102.244 141.189 102.449C141.436 102.651 141.747 102.751 142.122 102.751C142.727 102.751 143.193 102.489 143.52 101.963C143.847 101.437 144.01 100.707 144.01 99.7727H143.95C143.811 100.023 143.631 100.239 143.409 100.42C143.188 100.599 142.936 100.737 142.655 100.834C142.376 100.93 142.081 100.979 141.768 100.979C141.257 100.979 140.797 100.857 140.388 100.612C139.982 100.368 139.659 100.033 139.42 99.6065C139.185 99.1804 139.065 98.6932 139.062 98.1449C139.062 97.5767 139.193 97.0668 139.455 96.6151C139.719 96.1605 140.087 95.8026 140.558 95.5412C141.03 95.277 141.581 95.1477 142.212 95.1534ZM142.216 96.4318C141.909 96.4318 141.632 96.5071 141.385 96.6577C141.141 96.8054 140.947 97.0071 140.805 97.2628C140.666 97.5156 140.597 97.7983 140.597 98.1108C140.599 98.4205 140.669 98.7017 140.805 98.9545C140.945 99.2074 141.134 99.4077 141.372 99.5554C141.614 99.7031 141.889 99.777 142.199 99.777C142.429 99.777 142.643 99.733 142.842 99.6449C143.041 99.5568 143.214 99.4347 143.362 99.2784C143.513 99.1193 143.629 98.9389 143.712 98.7372C143.797 98.5355 143.838 98.3224 143.835 98.098C143.835 97.7997 143.764 97.5241 143.622 97.2713C143.483 97.0185 143.291 96.8153 143.047 96.6619C142.805 96.5085 142.528 96.4318 142.216 96.4318ZM147.048 104V95.2727H150.389C151.02 95.2727 151.544 95.3722 151.962 95.571C152.382 95.767 152.696 96.0355 152.903 96.3764C153.114 96.7173 153.219 97.1037 153.219 97.5355C153.219 97.8906 153.151 98.1946 153.014 98.4474C152.878 98.6974 152.695 98.9006 152.464 99.0568C152.234 99.2131 151.977 99.3253 151.693 99.3935V99.4787C152.003 99.4957 152.3 99.5909 152.584 99.7642C152.871 99.9347 153.105 100.176 153.287 100.489C153.469 100.801 153.56 101.179 153.56 101.622C153.56 102.074 153.45 102.48 153.232 102.841C153.013 103.199 152.683 103.482 152.243 103.689C151.803 103.896 151.249 104 150.581 104H147.048ZM148.629 102.679H150.33C150.903 102.679 151.317 102.57 151.57 102.351C151.825 102.129 151.953 101.845 151.953 101.499C151.953 101.24 151.889 101.007 151.761 100.8C151.634 100.589 151.452 100.425 151.216 100.305C150.98 100.183 150.699 100.122 150.372 100.122H148.629V102.679ZM148.629 98.9844H150.193C150.466 98.9844 150.712 98.9347 150.93 98.8352C151.149 98.733 151.321 98.5895 151.446 98.4048C151.574 98.2173 151.638 97.9957 151.638 97.7401C151.638 97.402 151.518 97.1236 151.28 96.9048C151.044 96.6861 150.693 96.5767 150.227 96.5767H148.629V98.9844ZM157.88 95.1534C158.297 95.1562 158.703 95.2301 159.098 95.375C159.496 95.517 159.854 95.75 160.172 96.0739C160.49 96.3949 160.743 96.8253 160.931 97.3651C161.118 97.9048 161.212 98.5724 161.212 99.3679C161.215 100.118 161.135 100.788 160.973 101.379C160.814 101.967 160.586 102.464 160.287 102.871C159.989 103.277 159.63 103.587 159.209 103.8C158.789 104.013 158.316 104.119 157.79 104.119C157.239 104.119 156.75 104.011 156.324 103.795C155.901 103.58 155.559 103.284 155.297 102.909C155.036 102.534 154.875 102.105 154.816 101.622H156.371C156.451 101.969 156.613 102.244 156.857 102.449C157.104 102.651 157.415 102.751 157.79 102.751C158.395 102.751 158.861 102.489 159.188 101.963C159.515 101.437 159.678 100.707 159.678 99.7727H159.618C159.479 100.023 159.299 100.239 159.077 100.42C158.855 100.599 158.604 100.737 158.323 100.834C158.044 100.93 157.749 100.979 157.436 100.979C156.925 100.979 156.465 100.857 156.056 100.612C155.65 100.368 155.327 100.033 155.088 99.6065C154.853 99.1804 154.733 98.6932 154.73 98.1449C154.73 97.5767 154.861 97.0668 155.123 96.6151C155.387 96.1605 155.755 95.8026 156.226 95.5412C156.698 95.277 157.249 95.1477 157.88 95.1534ZM157.884 96.4318C157.577 96.4318 157.3 96.5071 157.053 96.6577C156.809 96.8054 156.615 97.0071 156.473 97.2628C156.334 97.5156 156.265 97.7983 156.265 98.1108C156.267 98.4205 156.337 98.7017 156.473 98.9545C156.613 99.2074 156.801 99.4077 157.04 99.5554C157.282 99.7031 157.557 99.777 157.867 99.777C158.097 99.777 158.311 99.733 158.51 99.6449C158.709 99.5568 158.882 99.4347 159.03 99.2784C159.181 99.1193 159.297 98.9389 159.38 98.7372C159.465 98.5355 159.506 98.3224 159.503 98.098C159.503 97.7997 159.432 97.5241 159.29 97.2713C159.151 97.0185 158.959 96.8153 158.715 96.6619C158.473 96.5085 158.196 96.4318 157.884 96.4318ZM162.716 104V95.2727H168.307V96.598H164.297V98.9673H167.924V100.293H164.297V104H162.716ZM169.778 104H168.091L171.163 95.2727H173.115L176.192 104H174.504L172.173 97.0625H172.105L169.778 104ZM169.834 100.578H174.436V101.848H169.834V100.578Z" fill="#1C2176"/>
<path d="M226.082 104L227.514 95.2727H228.707L227.276 104H226.082ZM222.149 101.75L222.349 100.557H229.065L228.865 101.75H222.149ZM223.014 104L224.446 95.2727H225.639L224.207 104H223.014ZM222.656 98.7159L222.852 97.5227H229.568L229.372 98.7159H222.656ZM238.054 98.2173H236.46C236.414 97.956 236.331 97.7244 236.208 97.5227C236.086 97.3182 235.934 97.1449 235.752 97.0028C235.571 96.8608 235.363 96.7543 235.13 96.6832C234.9 96.6094 234.652 96.5724 234.385 96.5724C233.91 96.5724 233.49 96.6918 233.123 96.9304C232.757 97.1662 232.47 97.5128 232.262 97.9702C232.055 98.4247 231.951 98.9801 231.951 99.6364C231.951 100.304 232.055 100.866 232.262 101.324C232.473 101.778 232.76 102.122 233.123 102.355C233.49 102.585 233.909 102.7 234.38 102.7C234.642 102.7 234.886 102.666 235.113 102.598C235.343 102.527 235.549 102.423 235.731 102.287C235.916 102.151 236.071 101.983 236.196 101.784C236.324 101.585 236.412 101.358 236.46 101.102L238.054 101.111C237.994 101.526 237.865 101.915 237.666 102.278C237.47 102.642 237.213 102.963 236.895 103.241C236.576 103.517 236.204 103.733 235.778 103.889C235.352 104.043 234.879 104.119 234.359 104.119C233.592 104.119 232.907 103.942 232.305 103.587C231.703 103.232 231.228 102.719 230.882 102.048C230.535 101.378 230.362 100.574 230.362 99.6364C230.362 98.696 230.537 97.892 230.886 97.2244C231.235 96.554 231.711 96.0412 232.314 95.6861C232.916 95.331 233.598 95.1534 234.359 95.1534C234.845 95.1534 235.297 95.2216 235.714 95.358C236.132 95.4943 236.504 95.6946 236.831 95.9588C237.157 96.2202 237.426 96.5412 237.636 96.9219C237.849 97.2997 237.988 97.7315 238.054 98.2173ZM240.517 104H238.829L241.902 95.2727H243.853L246.93 104H245.243L242.912 97.0625H242.843L240.517 104ZM240.572 100.578H245.174V101.848H240.572V100.578ZM251.024 95.1534C251.442 95.1562 251.848 95.2301 252.243 95.375C252.641 95.517 252.999 95.75 253.317 96.0739C253.635 96.3949 253.888 96.8253 254.075 97.3651C254.263 97.9048 254.357 98.5724 254.357 99.3679C254.359 100.118 254.28 100.788 254.118 101.379C253.959 101.967 253.73 102.464 253.432 102.871C253.134 103.277 252.774 103.587 252.354 103.8C251.933 104.013 251.46 104.119 250.935 104.119C250.384 104.119 249.895 104.011 249.469 103.795C249.045 103.58 248.703 103.284 248.442 102.909C248.18 102.534 248.02 102.105 247.96 101.622H249.516C249.595 101.969 249.757 102.244 250.001 102.449C250.249 102.651 250.56 102.751 250.935 102.751C251.54 102.751 252.006 102.489 252.332 101.963C252.659 101.437 252.822 100.707 252.822 99.7727H252.763C252.624 100.023 252.443 100.239 252.222 100.42C252 100.599 251.749 100.737 251.467 100.834C251.189 100.93 250.893 100.979 250.581 100.979C250.07 100.979 249.609 100.857 249.2 100.612C248.794 100.368 248.472 100.033 248.233 99.6065C247.997 99.1804 247.878 98.6932 247.875 98.1449C247.875 97.5767 248.006 97.0668 248.267 96.6151C248.531 96.1605 248.899 95.8026 249.371 95.5412C249.842 95.277 250.393 95.1477 251.024 95.1534ZM251.028 96.4318C250.722 96.4318 250.445 96.5071 250.197 96.6577C249.953 96.8054 249.76 97.0071 249.618 97.2628C249.479 97.5156 249.409 97.7983 249.409 98.1108C249.412 98.4205 249.482 98.7017 249.618 98.9545C249.757 99.2074 249.946 99.4077 250.185 99.5554C250.426 99.7031 250.702 99.777 251.011 99.777C251.241 99.777 251.456 99.733 251.655 99.6449C251.854 99.5568 252.027 99.4347 252.175 99.2784C252.325 99.1193 252.442 98.9389 252.524 98.7372C252.609 98.5355 252.651 98.3224 252.648 98.098C252.648 97.7997 252.577 97.5241 252.435 97.2713C252.295 97.0185 252.104 96.8153 251.859 96.6619C251.618 96.5085 251.341 96.4318 251.028 96.4318ZM259.325 95.2727V104H257.744V96.8111H257.693L255.652 98.1151V96.6662L257.821 95.2727H259.325ZM261.626 104V95.2727H267.217V96.598H263.207V98.9673H266.834V100.293H263.207V104H261.626ZM268.658 104V95.2727H274.249V96.598H270.239V98.9673H273.865V100.293H270.239V104H268.658Z" fill="#1C2176"/>
</svg>
