<svg width="50" height="50" viewBox="0 0 50 50" fill="none" xmlns="http://www.w3.org/2000/svg">
<g clip-path="url(#clip0_166_2210)">
<path d="M47.6123 4.75781H45.2373V2.38281H42.8623V-0.0078125H9.51856V19.0547H2.37793V21.4297H14.2842V19.0547H11.9092V2.38281H38.0967V11.8984H47.6123V35.7109H45.2373V40.4766H47.6123V47.6172H50.0029V7.14844H47.6123V4.75781ZM11.9092 47.6172H47.6123V49.9922H11.9092V47.6172Z" fill="#1C2176"/>
<path d="M42.8623 30.9453H45.2373V35.7109H42.8623V30.9453ZM40.4717 26.1953H42.8623V30.9453H40.4717V26.1953ZM16.6748 23.8047H40.4717V26.1953H16.6748V23.8047ZM30.9561 11.8984H33.3311V14.2891H30.9561V11.8984ZM23.8154 16.6641H30.9561V19.0547H23.8154V16.6641ZM21.4248 11.8984H23.8154V14.2891H21.4248V11.8984ZM14.2842 21.4297H16.6748V23.8047H14.2842V21.4297ZM9.51856 42.8516H11.9092V47.6172H9.51856V42.8516ZM7.14356 38.1016H9.51856V42.8516H7.14356V38.1016ZM4.76856 33.3359H7.14356V38.1016H4.76856V33.3359ZM2.37793 28.5703H4.76856V33.3359H2.37793V28.5703ZM0.00292969 21.4297H2.37793V28.5703H0.00292969V21.4297Z" fill="#1C2176"/>
</g>
<defs>
<clipPath id="clip0_166_2210">
<rect width="50" height="50" fill="white"/>
</clipPath>
</defs>
</svg>
