<svg width="90" height="90" viewBox="0 0 90 90" fill="none" xmlns="http://www.w3.org/2000/svg">
<g clip-path="url(#clip0_118_37)">
<path d="M85.7251 51.4266H90.0001V55.7297H85.7251V51.4266ZM77.147 47.1516H85.7251V51.4266H77.147V47.1516ZM77.147 38.5734H81.422V42.8766H77.147V38.5734Z" fill="#1C2176"/>
<path d="M64.2938 42.8766V34.2984H60.0188V29.9953H55.7157V21.4453H60.0188V17.1422H77.147V21.4453H81.422V38.5734H85.7251V12.8672H81.422V8.56406H77.147V4.28906H60.0188V8.56406H55.7157V12.8672H51.4407V25.7203H38.5876V12.8672H34.2845V8.56406H30.0095V4.28906H12.8532V8.56406H8.57822V12.8672H4.30322V38.5734H8.57822V21.4453H12.8532V17.1422H30.0095V21.4453H34.2845V29.9953H30.0095V34.2984H25.7345V42.8766H12.8532V47.1516H25.7345V64.2797H30.0095V42.8766H34.2845V38.5734H55.7157V42.8766H60.0188V64.2797H64.2938V47.1516H77.147V42.8766H64.2938ZM68.5688 81.4359H72.872V85.7109H68.5688V81.4359ZM64.2938 77.1609H68.5688V81.4359H64.2938V77.1609ZM55.7157 72.8578H64.2938V77.1609H55.7157V72.8578ZM55.7157 64.2797H60.0188V68.5828H55.7157V64.2797Z" fill="#1C2176"/>
<path d="M51.4406 47.1516H55.7156V55.7297H51.4406V47.1516ZM34.2844 68.5828H55.7156V72.8578H34.2844V68.5828ZM38.5875 60.0047H51.4406V64.2797H38.5875V60.0047ZM34.2844 47.1516H38.5875V55.7297H34.2844V47.1516ZM30.0094 64.2797H34.2844V68.5828H30.0094V64.2797ZM25.7344 72.8578H34.2844V77.1609H25.7344V72.8578ZM21.4312 77.1609H25.7344V81.4359H21.4312V77.1609ZM17.1562 81.4359H21.4312V85.7109H17.1562V81.4359ZM8.57812 38.5734H12.8531V42.8766H8.57812V38.5734ZM4.30312 47.1516H12.8531V51.4266H4.30312V47.1516ZM0 51.4266H4.30312V55.7297H0V51.4266Z" fill="#1C2176"/>
</g>
<defs>
<clipPath id="clip0_118_37">
<rect width="90" height="90" fill="white"/>
</clipPath>
</defs>
</svg>
