<svg width="279" height="50" viewBox="0 0 279 50" fill="none" xmlns="http://www.w3.org/2000/svg">
<path d="M58.496 -3.8147e-06V19.456H43.072C43.072 19.456 43.0507 19.4773 43.008 19.52C43.008 19.52 42.9867 19.52 42.944 19.52C42.944 19.52 42.944 19.5413 42.944 19.584C42.944 21.4613 42.944 23.36 42.944 25.28C42.944 27.1573 42.944 29.056 42.944 30.976C42.944 32.8533 42.944 34.752 42.944 36.672C42.944 38.5493 42.944 40.448 42.944 42.368C42.944 44.2453 42.944 46.1227 42.944 48H16.384C16.384 44.8427 16.384 41.6853 16.384 38.528C16.384 35.3707 16.384 32.2133 16.384 29.056C16.384 25.8987 16.384 22.7413 16.384 19.584C16.384 19.5413 16.3627 19.52 16.32 19.52C16.32 19.4773 16.2987 19.456 16.256 19.456H0.832V-3.8147e-06H58.496ZM87.5025 49.92C84.8572 49.92 82.2972 49.728 79.8225 49.344C77.3478 48.96 75.0438 48.384 72.9105 47.616C70.7772 46.8053 68.8358 45.8027 67.0865 44.608C65.3372 43.4133 63.8438 42.0267 62.6065 40.448C61.3692 38.8267 60.4092 37.0133 59.7265 35.008C59.0438 32.96 58.7025 30.6987 58.7025 28.224C58.7025 25.3227 59.1718 22.72 60.1105 20.416C61.0918 18.0693 62.4572 16.0213 64.2065 14.272C65.9985 12.5227 68.0892 11.072 70.4785 9.92C72.8678 8.72533 75.4918 7.85066 78.3505 7.296C81.2518 6.69866 84.3025 6.4 87.5025 6.4C91.5132 6.4 95.2465 6.86933 98.7025 7.808C102.201 8.704 105.252 10.0693 107.855 11.904C110.5 13.696 112.569 15.9573 114.063 18.688C115.556 21.4187 116.303 24.5973 116.303 28.224C116.303 31.8507 115.556 35.0293 114.063 37.76C112.569 40.448 110.5 42.7093 107.855 44.544C105.252 46.336 102.201 47.68 98.7025 48.576C95.2465 49.472 91.5132 49.92 87.5025 49.92ZM87.5665 32.96C90.2118 32.96 92.0892 32.448 93.1985 31.424C94.3078 30.4 94.8625 29.2907 94.8625 28.096C94.8625 27.5413 94.7345 26.9867 94.4785 26.432C94.2225 25.8773 93.8172 25.3653 93.2625 24.896C92.7078 24.4267 91.9612 24.064 91.0225 23.808C90.0838 23.5093 88.9318 23.36 87.5665 23.36C86.2012 23.36 85.0278 23.5093 84.0465 23.808C83.1078 24.064 82.3398 24.4267 81.7425 24.896C81.1878 25.3653 80.7825 25.8773 80.5265 26.432C80.2705 26.9867 80.1425 27.5627 80.1425 28.16C80.1425 28.7573 80.2705 29.3547 80.5265 29.952C80.7825 30.5067 81.2092 31.0187 81.8065 31.488C82.4038 31.9147 83.1718 32.2773 84.1105 32.576C85.0492 32.832 86.2012 32.96 87.5665 32.96ZM117.578 20.992C117.578 18.56 118.26 16.448 119.626 14.656C121.034 12.864 122.932 11.3707 125.322 10.176C127.711 8.93867 130.42 8.02133 133.45 7.424C136.479 6.82667 139.636 6.528 142.922 6.528C146.975 6.528 150.73 6.89067 154.186 7.616C157.684 8.34133 160.842 9.30133 163.658 10.496V25.344C162.463 24.448 160.884 23.68 158.922 23.04C157.002 22.4 154.954 21.9093 152.778 21.568C150.644 21.2267 148.618 21.056 146.698 21.056C145.418 21.056 144.244 21.1413 143.178 21.312C142.154 21.44 141.322 21.6533 140.682 21.952C140.084 22.2507 139.786 22.6347 139.786 23.104C139.786 23.36 139.871 23.552 140.042 23.68C140.255 23.808 140.554 23.8933 140.938 23.936C141.322 23.9787 141.812 24 142.41 24C143.391 24 144.266 24 145.034 24C145.802 24 146.655 24 147.594 24C149.727 24 151.86 24.1493 153.994 24.448C156.17 24.704 158.132 25.2373 159.882 26.048C161.674 26.8587 163.103 28.032 164.17 29.568C165.236 31.0613 165.77 33.0453 165.77 35.52C165.77 38.1227 165.044 40.3413 163.594 42.176C162.186 43.968 160.244 45.44 157.77 46.592C155.338 47.7013 152.586 48.512 149.514 49.024C146.484 49.536 143.327 49.792 140.042 49.792C136.159 49.792 132.319 49.4293 128.522 48.704C124.767 47.9787 121.546 46.912 118.858 45.504V29.888C119.924 31.04 121.439 32 123.402 32.768C125.407 33.4933 127.562 34.048 129.866 34.432C132.212 34.7733 134.41 34.944 136.458 34.944C137.78 34.944 138.975 34.88 140.042 34.752C141.108 34.5813 141.94 34.3467 142.538 34.048C143.178 33.7067 143.498 33.28 143.498 32.768C143.498 32.5547 143.434 32.4053 143.306 32.32C143.178 32.2347 142.964 32.1707 142.666 32.128C142.41 32.0853 142.047 32.064 141.578 32.064C140.938 32.064 140.276 32.064 139.594 32.064C138.911 32.064 138.292 32.064 137.738 32.064C136.244 32.064 134.58 32.0213 132.746 31.936C130.954 31.808 129.162 31.5733 127.37 31.232C125.578 30.848 123.935 30.272 122.442 29.504C120.991 28.6933 119.818 27.6053 118.922 26.24C118.026 24.832 117.578 23.0827 117.578 20.992ZM167.718 48C167.718 44.032 167.718 40.0853 167.718 36.16C167.718 32.2347 167.718 28.3093 167.718 24.384C167.718 20.416 167.718 16.4693 167.718 12.544C167.718 10.4107 167.718 8.32 167.718 6.272C167.718 4.18133 167.718 2.09066 167.718 -3.8147e-06H189.862C189.862 1.32266 189.862 2.88 189.862 4.672C189.862 6.42133 189.862 8.256 189.862 10.176C189.862 12.096 189.862 13.952 189.862 15.744C189.862 18.1333 189.862 20.1813 189.862 21.888C189.862 23.5947 189.862 24.5547 189.862 24.768C189.862 24.9813 189.862 25.472 189.862 26.24C189.862 26.9653 189.862 27.8613 189.862 28.928C189.862 30.336 189.862 31.9147 189.862 33.664C189.862 35.4133 189.862 37.2053 189.862 39.04C189.862 40.832 189.862 42.5173 189.862 44.096C189.862 45.6747 189.862 46.976 189.862 48H167.718ZM196.646 48C196.646 46.336 196.646 44.672 196.646 43.008C196.646 41.344 196.646 39.7013 196.646 38.08C196.646 36.416 196.646 34.752 196.646 33.088C196.646 31.424 196.646 29.76 196.646 28.096C196.646 26.8587 196.326 25.9627 195.686 25.408C195.088 24.8533 194.363 24.5547 193.51 24.512C192.656 24.4267 191.867 24.4907 191.142 24.704C190.459 24.9173 190.032 25.152 189.862 25.408L194.982 8.96C196.518 8.27733 198.16 7.76533 199.91 7.424C201.659 7.08267 203.387 6.912 205.094 6.912C207.483 6.912 209.702 7.296 211.75 8.064C213.84 8.832 215.526 10.048 216.806 11.712C218.128 13.376 218.79 15.5947 218.79 18.368C218.79 21.6533 218.79 24.96 218.79 28.288C218.79 31.5733 218.79 34.8587 218.79 38.144C218.79 41.4293 218.79 44.7147 218.79 48H196.646ZM249.44 49.92C246.795 49.92 244.235 49.728 241.76 49.344C239.285 48.96 236.981 48.384 234.848 47.616C232.715 46.8053 230.773 45.8027 229.024 44.608C227.275 43.4133 225.781 42.0267 224.544 40.448C223.307 38.8267 222.347 37.0133 221.664 35.008C220.981 32.96 220.64 30.6987 220.64 28.224C220.64 25.3227 221.109 22.72 222.048 20.416C223.029 18.0693 224.395 16.0213 226.144 14.272C227.936 12.5227 230.027 11.072 232.416 9.92C234.805 8.72533 237.429 7.85066 240.288 7.296C243.189 6.69866 246.24 6.4 249.44 6.4C253.451 6.4 257.184 6.86933 260.64 7.808C264.139 8.704 267.189 10.0693 269.792 11.904C272.437 13.696 274.507 15.9573 276 18.688C277.493 21.4187 278.24 24.5973 278.24 28.224C278.24 31.8507 277.493 35.0293 276 37.76C274.507 40.448 272.437 42.7093 269.792 44.544C267.189 46.336 264.139 47.68 260.64 48.576C257.184 49.472 253.451 49.92 249.44 49.92ZM249.504 32.96C252.149 32.96 254.027 32.448 255.136 31.424C256.245 30.4 256.8 29.2907 256.8 28.096C256.8 27.5413 256.672 26.9867 256.416 26.432C256.16 25.8773 255.755 25.3653 255.2 24.896C254.645 24.4267 253.899 24.064 252.96 23.808C252.021 23.5093 250.869 23.36 249.504 23.36C248.139 23.36 246.965 23.5093 245.984 23.808C245.045 24.064 244.277 24.4267 243.68 24.896C243.125 25.3653 242.72 25.8773 242.464 26.432C242.208 26.9867 242.08 27.5627 242.08 28.16C242.08 28.7573 242.208 29.3547 242.464 29.952C242.72 30.5067 243.147 31.0187 243.744 31.488C244.341 31.9147 245.109 32.2773 246.048 32.576C246.987 32.832 248.139 32.96 249.504 32.96Z" fill="#1C2176"/>
</svg>
