<svg width="30" height="30" viewBox="0 0 30 30" fill="none" xmlns="http://www.w3.org/2000/svg">
<g clip-path="url(#clip0_270_191)">
<path d="M27.8624 22.1437H26.428V20.7187H25.003V19.2843H23.5687V16.4343H22.1437V19.2843H20.7187V20.7187H19.2843V22.1437H16.4343V23.5687H19.2843V25.003H20.7187V26.428H22.1437V27.8624H23.5687V29.2874H27.8624V27.8624H29.2874V23.5687H27.8624V22.1437ZM27.8624 26.428H26.428V25.003H25.003V23.5687H23.5687V22.1437H25.003V23.5687H26.428V25.003H27.8624V26.428ZM23.5687 9.29053H25.003V16.4343H23.5687V9.29053ZM22.1437 6.43115H23.5687V9.29053H22.1437V6.43115ZM20.7187 5.00615H22.1437V6.43115H20.7187V5.00615ZM19.2843 3.57178H20.7187V5.00615H19.2843V3.57178ZM16.4343 17.8593H17.8593V19.2843H16.4343V17.8593ZM16.4343 2.14678H19.2843V3.57178H16.4343V2.14678ZM9.29053 19.2843H16.4343V20.7187H9.29053V19.2843ZM14.9999 12.1405H16.4343V14.9999H14.9999V12.1405ZM9.29053 23.5687H16.4343V25.003H9.29053V23.5687ZM10.7155 16.4343H14.9999V17.8593H10.7155V16.4343ZM9.29053 0.712402H16.4343V2.14678H9.29053V0.712402ZM9.29053 12.1405H10.7155V14.9999H9.29053V12.1405ZM6.43115 22.1437H9.29053V23.5687H6.43115V22.1437ZM7.85615 17.8593H9.29053V19.2843H7.85615V17.8593ZM6.43115 2.14678H9.29053V3.57178H6.43115V2.14678Z" fill="#1C2176"/>
<path d="M7.85615 10.7155H9.29053V9.29053H16.4343V10.7155H17.8593V17.8593H19.2843V7.85615H17.8593V6.43115H16.4343V5.00615H9.29053V6.43115H7.85615V7.85615H6.43115V17.8593H7.85615V10.7155ZM4.99678 20.7187H6.43115V22.1437H4.99678V20.7187ZM4.99678 3.57178H6.43115V5.00615H4.99678V3.57178ZM3.57178 19.2843H4.99678V20.7187H3.57178V19.2843ZM3.57178 5.00615H4.99678V6.43115H3.57178V5.00615ZM2.14678 16.4343H3.57178V19.2843H2.14678V16.4343ZM2.14678 6.43115H3.57178V9.29053H2.14678V6.43115ZM0.712402 9.29053H2.14678V16.4343H0.712402V9.29053Z" fill="#1C2176"/>
</g>
<defs>
<clipPath id="clip0_270_191">
<rect width="30" height="30" fill="white"/>
</clipPath>
</defs>
</svg>
